<?xml version="1.0" encoding="utf-8" ?>
<svg xmlns="http://www.w3.org/2000/svg" xmlns:xlink="http://www.w3.org/1999/xlink" width="1024" height="1024">
	<path fill="#FEFEFE" d="M864.32 150.148C868.376 149.652 873.335 149.774 876.872 151.992C879.018 153.337 880.598 155.295 881.683 157.567C884.526 163.52 886.62 178.202 888.28 185.417C895.082 181.704 904.363 176.733 912.132 176.002C917.87 175.462 925.306 175.031 929.893 179.098C933.341 182.155 934.616 186.772 934.933 191.219C936.364 211.328 922.365 212.475 911.861 224.725C911.722 224.886 911.59 225.053 911.454 225.217C918.885 231.697 931.694 236.263 937.094 243.86C940.489 248.638 940.976 255.87 939.744 261.522C938.596 266.79 934.894 270.147 930.504 272.913C913.543 273.562 909.271 271.536 893.674 266.518C895.221 277.689 896.116 286.092 895.958 297.417C895.14 298.814 894.335 300.185 893.151 301.309C887.752 306.434 879.413 305.129 872.591 304.951C865.511 301.087 859.384 285.084 856.691 277.551C851.186 283.1 845.181 293.058 839.03 296.858C834.63 299.577 827.872 299.826 822.917 298.563C818.273 297.379 815.517 294.458 813.125 290.472C812.693 275.901 813.211 271.879 818.392 258.15C809.97 257.807 802.079 258.908 794.013 261.422C776.332 266.934 766.173 279.32 757.776 295.177C769.864 298.918 784.492 298.906 791.931 310.478C792.228 322.908 791.797 329.453 787.692 341.354C794.436 345.185 799.974 350.48 805.431 355.917C818.257 368.698 828.835 381.869 837.065 398.046C856.841 436.919 860.533 487.633 846.997 529.022C835.255 564.925 806.821 599.381 773.04 616.538C765.334 621.314 756.291 624.816 747.677 627.657C730.722 633.249 713.702 635.027 695.936 635.071C688.844 635.088 681.584 635.372 674.512 634.824C655.886 633.379 636.333 627.335 619.739 618.861C585.698 601.479 554.054 567.203 542.424 530.375Q541.781 528.32 541.189 526.251Q540.596 524.181 540.054 522.098Q539.511 520.015 539.019 517.919Q538.528 515.823 538.087 513.716Q537.646 511.609 537.256 509.492Q536.866 507.375 536.528 505.249Q536.189 503.123 535.903 500.989Q535.616 498.856 535.381 496.716Q535.146 494.576 534.962 492.431Q534.779 490.286 534.648 488.137Q534.517 485.989 534.438 483.837Q534.358 481.686 534.331 479.534Q534.304 477.381 534.329 475.229Q534.354 473.076 534.432 470.925Q534.509 468.773 534.638 466.624Q534.767 464.476 534.949 462.331Q535.13 460.185 535.363 458.045Q535.596 455.905 535.881 453.771Q536.166 451.638 536.502 449.511Q536.839 447.385 537.227 445.268Q537.614 443.15 538.053 441.043Q538.492 438.935 538.982 436.839Q539.472 434.743 540.013 432.659Q540.553 430.575 541.144 428.505Q541.735 426.435 542.376 424.38Q543.016 422.325 543.707 420.286Q544.397 418.247 545.136 416.225Q545.876 414.203 546.664 412.2Q547.452 410.197 548.289 408.213Q549.125 406.23 550.009 404.267Q550.894 402.304 551.825 400.363Q552.757 398.423 553.735 396.505C570.394 364.259 599.828 338.505 632.97 324.183C641.259 320.6 649.927 318.118 658.515 315.38C662.997 305.247 663.095 287.053 673.333 281.143C682.75 275.707 703.836 282.208 713.938 285.189C721.07 268.387 727.639 256.6 740.807 243.617C760.507 224.196 788.437 216.806 815.571 216.976C809.125 210.727 802.795 204.664 798.086 196.935C797.918 191.563 797.363 185.706 799.518 180.633C800.892 177.399 803.257 174.994 806.597 173.825C809.439 172.831 812.422 172.909 815.388 172.913C818.004 172.916 821.117 172.667 823.619 173.363C828.875 174.824 838.829 182.045 844.792 184.954C846.776 176.312 846.384 163.167 850.903 155.871C852.053 154.014 853.952 152.55 855.593 151.137C858.553 151.046 861.401 150.61 864.32 150.148Z"/>
	<path fill="#292929" d="M863.848 157.054C866.54 156.907 869.068 156.799 871.412 158.345C873.441 159.684 874.883 161.819 875.77 164.049C877.399 168.143 877.866 173.178 878.761 177.502Q880.778 186.849 882.901 196.172C893.703 193.709 905.368 183.739 915.782 182.714C918.825 182.415 921.804 183.137 924.112 185.209C926.367 187.233 927.916 190.342 927.978 193.386C928.173 202.867 916.145 209.984 909.687 215.427C906.57 218.054 903.755 220.922 900.938 223.861C903.581 228.344 906.518 232.058 910.668 235.26C917.68 240.668 929.538 244.109 932.996 253C933.726 254.876 933.884 256.918 933.038 258.784C931.002 263.277 926.083 265.711 921.743 267.41C914.775 265.605 895.272 257.506 888.959 258.292C887.438 258.481 887.281 258.835 886.328 259.935C884.741 265.454 889.031 284.28 889.6 291.438C889.244 292.212 888.88 292.994 888.433 293.72C886.856 296.287 884.722 297.647 881.807 298.33C869.282 301.262 867.351 271.485 859.472 267.616C853.32 264.594 839.061 287.026 834 290.568C832.62 291.533 830.619 291.972 829.012 292.437C827.146 291.751 825.118 291.109 823.438 290.03C810.782 281.903 829.627 263.155 827.178 253.132C826.455 252.267 826.223 251.78 825.076 251.518C822.896 251.021 820.145 251.313 817.901 251.281C803.466 251.079 788.198 252.983 775.852 261.06C765.045 268.13 757.404 277.612 751.935 289.253C750.67 291.946 749.11 295 748.605 297.949C747.427 304.835 778.1 304.153 784.053 313.705C788.171 320.311 781.007 337.269 779.086 344.759C795.947 357.399 809.935 370.184 821.673 387.863Q822.734 389.466 823.756 391.094Q824.778 392.722 825.76 394.375Q826.742 396.027 827.684 397.703Q828.626 399.379 829.527 401.077Q830.428 402.775 831.287 404.494Q832.147 406.213 832.964 407.953Q833.782 409.693 834.557 411.452Q835.333 413.211 836.065 414.988Q836.797 416.766 837.486 418.56Q838.175 420.355 838.821 422.165Q839.466 423.976 840.068 425.802Q840.669 427.628 841.226 429.467Q841.783 431.307 842.295 433.16Q842.807 435.013 843.274 436.877Q843.741 438.742 844.163 440.618Q844.585 442.493 844.961 444.378Q845.338 446.263 845.668 448.157Q845.999 450.05 846.283 451.952Q846.568 453.853 846.806 455.76Q847.044 457.668 847.236 459.58Q847.428 461.493 847.574 463.41Q847.72 465.326 847.819 467.246Q847.918 469.166 847.97 471.087Q848.023 473.009 848.029 474.931Q848.035 476.854 847.995 478.775Q847.954 480.697 847.867 482.617Q847.78 484.538 847.646 486.455Q847.513 488.373 847.333 490.287Q847.152 492.201 846.926 494.11Q846.7 496.018 846.427 497.921Q846.155 499.824 845.836 501.72Q845.517 503.616 845.153 505.503C836.476 548.241 813.107 580.827 777.051 604.78C759.671 615.478 741.659 622.723 721.533 626.325Q719.678 626.664 717.816 626.957Q715.954 627.251 714.085 627.498Q712.216 627.746 710.341 627.947Q708.467 628.148 706.588 628.304Q704.709 628.459 702.827 628.568Q700.945 628.677 699.061 628.74Q697.177 628.802 695.291 628.819Q693.406 628.835 691.521 628.805Q689.636 628.775 687.752 628.699Q685.868 628.622 683.987 628.499Q682.106 628.377 680.228 628.208Q678.351 628.039 676.478 627.824Q674.605 627.609 672.738 627.348Q670.87 627.087 669.01 626.78Q667.15 626.473 665.298 626.12Q663.446 625.768 661.603 625.37Q659.76 624.972 657.928 624.529Q656.096 624.085 654.275 623.597Q652.454 623.109 650.645 622.576Q648.837 622.044 647.042 621.466Q645.247 620.889 643.467 620.268Q641.687 619.647 639.923 618.983Q638.159 618.318 636.411 617.61Q634.664 616.902 632.934 616.152Q631.205 615.401 629.495 614.608Q627.784 613.815 626.094 612.981Q624.403 612.146 622.734 611.27Q621.065 610.394 619.417 609.477Q617.77 608.56 616.146 607.603Q614.521 606.646 612.921 605.649Q611.321 604.653 609.746 603.617Q608.17 602.581 606.621 601.507C574.668 579.023 550.419 542.987 543.682 504.303Q543.338 502.36 543.042 500.408Q542.747 498.457 542.5 496.499Q542.253 494.54 542.055 492.577Q541.857 490.613 541.708 488.645Q541.559 486.677 541.459 484.706Q541.359 482.735 541.308 480.762Q541.257 478.789 541.255 476.815Q541.253 474.841 541.301 472.868Q541.348 470.895 541.444 468.924Q541.541 466.953 541.686 464.984Q541.832 463.016 542.026 461.052Q542.221 459.088 542.464 457.129Q542.708 455.171 543 453.219Q543.292 451.267 543.632 449.323Q543.973 447.379 544.361 445.444Q544.75 443.509 545.187 441.584Q545.624 439.659 546.109 437.746Q546.593 435.833 547.126 433.932Q547.658 432.032 548.237 430.145Q548.817 428.258 549.443 426.387Q550.069 424.515 550.741 422.66Q551.414 420.804 552.132 418.966Q552.851 417.128 553.615 415.308Q554.379 413.488 555.188 411.688Q555.997 409.888 556.851 408.108Q557.705 406.329 558.603 404.571Q559.5 402.813 560.442 401.079Q561.383 399.344 562.367 397.633Q563.351 395.922 564.378 394.237Q565.404 392.551 566.472 390.891Q567.54 389.232 568.65 387.599Q569.759 385.966 570.908 384.362Q572.552 382.08 574.276 379.858Q576 377.635 577.801 375.475Q579.602 373.315 581.478 371.219Q583.355 369.124 585.304 367.096Q587.253 365.069 589.273 363.111Q591.292 361.154 593.38 359.269Q595.467 357.384 597.62 355.574Q599.773 353.764 601.988 352.031Q604.204 350.298 606.479 348.645Q608.754 346.991 611.086 345.419Q613.419 343.847 615.805 342.358Q618.191 340.869 620.629 339.466Q623.066 338.062 625.551 336.746Q628.037 335.429 630.567 334.202Q633.098 332.974 635.67 331.836Q638.242 330.698 640.853 329.652C648.539 326.495 656.599 323.616 664.809 322.227C667.981 313.497 669.101 303.791 672.7 295.299C674.946 289.999 677.685 287.623 682.842 285.515C692.447 286.859 708.82 293.391 717.003 293.363C718.379 293.359 719.022 293.075 719.796 291.881C722.078 288.362 723.354 283.67 725.054 279.819C729.559 269.615 735.961 259.763 743.91 251.912C767.497 228.617 793.597 223.436 825.741 223.582L828.716 220.669C826.674 217.73 824.634 214.779 822.223 212.126C816.025 205.305 808.963 199.689 804.48 191.444C804.817 189.528 805.229 187.485 806.043 185.712C807.988 181.479 811.885 180.138 815.933 178.617C816.056 178.66 816.181 178.701 816.304 178.746C816.51 178.822 816.712 178.903 816.918 178.977C821.364 180.571 825.28 183.464 829.337 185.851Q839.577 191.818 849.977 197.503C852.909 187.647 852.74 169.979 856.848 162.316C858.53 159.177 860.495 157.996 863.848 157.054Z"/>
	<path fill="#FEFEFE" d="M687.844 370.693C690.206 370.287 692.862 370.358 695.26 370.356C700.859 370.353 706.309 371.931 711.663 373.401C725.313 377.148 736.035 380.722 746.323 390.949C756.351 400.919 761.467 412.825 761.364 426.984C761.235 444.885 753.537 460.224 740.863 472.65C750.61 481 758.256 487.699 762.366 500.394C767.218 515.382 765.155 535.02 757.843 548.908C750.301 563.232 736.573 574.242 721.174 579.022C701.388 585.164 677.038 584.718 658.563 574.749C644.102 566.946 633.249 554.358 628.633 538.476C626.969 532.751 624.736 523.089 627.986 517.67C629.562 515.042 631.816 513.855 634.729 513.23C634.911 513.19 635.094 513.156 635.276 513.119C641.699 512.879 657.701 512.013 663.233 513.347C664.669 513.693 665.773 514.421 666.823 515.445C669.841 518.389 671.206 523.222 672.914 527.019C674.553 530.664 676.904 534.225 680.146 536.627C685.42 540.535 693.623 541.319 699.99 540.178C705.68 539.159 710.782 536.115 714.003 531.259C717.643 525.772 718.109 517.555 716.728 511.202C714.308 500.062 704.179 495.624 693.714 495.078C689.233 494.845 683.426 495.95 679.554 493.111C677.591 491.671 676.951 488.967 676.652 486.682C675.833 480.423 677.193 459.616 681.105 455.069C683.736 452.01 690.2 452.216 693.961 451.78C700.701 450.997 708.887 448.112 713.097 442.545C715.938 438.789 716.792 433.517 716.031 428.939C715.269 424.355 712.325 420.357 708.481 417.832C703.133 414.319 695.163 412.766 688.955 414.292C679.182 416.694 676.911 424.612 672.076 431.943C670.281 434.664 668.448 435.851 665.261 436.48C659.369 437.643 638.119 438.167 633.47 434.787C631.901 433.646 631.359 431.585 631.121 429.751C630.773 427.062 631.108 424.219 631.306 421.528C632.065 411.218 634.552 402.44 641.036 394.163C652.544 379.471 669.867 372.939 687.844 370.693Z"/>
	<path fill="#0A5C9D" d="M687.454 378.206C687.616 378.19 687.777 378.171 687.94 378.159C704.894 376.938 724.421 382.477 737.52 393.475C746.496 401.011 752.84 412.606 753.742 424.348C754.871 439.036 749.12 451.054 739.455 461.707C736.041 465.47 732.24 468.863 728.964 472.754L728.571 473.227C733.018 477.375 738.606 480.191 743.112 484.325C752.186 492.648 756.866 503.592 757.357 515.823C757.941 530.379 753.547 545.22 743.548 556.026C730.905 569.69 714.149 574.824 695.956 575.371C678.478 575.895 662.28 570.423 649.556 558.24C638.593 547.742 634.303 536.104 634.016 521.137C642.614 520.18 651.715 520.731 660.375 520.736C661.491 521.078 661.664 521.154 662.269 522.184C663.136 523.66 663.543 525.898 664.174 527.531C666.734 534.145 671.284 540.738 677.575 544.234C685.593 548.69 695.884 549.118 704.596 546.576C711.761 544.486 718.321 540.063 721.821 533.306C725.652 525.907 726.234 514.279 723.647 506.477C719.778 494.808 708.079 488.86 696.497 487.968C693.529 487.739 687.772 488.328 685.224 486.746C684.526 486.312 684.289 485.288 684.13 484.522C683.15 479.782 684.487 464.161 686.858 460.28C691.526 458.772 697.254 459.3 702.153 458.508C708.806 457.434 715.785 453.072 719.62 447.592C723.811 441.604 724.997 433.613 723.501 426.516C722.101 419.873 717.843 414.372 712.056 410.899C704.647 406.455 694.943 405.504 686.661 407.727C674.45 411.004 670.771 419.265 665.07 429.222C659.167 429.699 645.204 430.166 639.808 428.916C638.871 427.898 638.727 427.17 638.603 425.791C637.698 415.695 641.832 405.072 648.229 397.401C657.893 385.814 672.702 379.634 687.454 378.206Z"/>
	<path fill="#FEFEFE" d="M141.114 462.104C147.972 461.705 155.258 461.733 162.123 462.006C175.252 462.528 187.494 467.36 196.509 477.18Q198.678 474.818 200.929 472.535C209.753 463.712 221.048 461.976 232.993 461.952C251.281 461.914 266.804 463.105 280.428 476.822C286.177 482.61 290.207 489.58 292.129 497.521C295.6 511.866 294.042 534.467 294.02 549.643L294.069 615.023C294.056 617.898 294.435 621.348 292.1 623.448C287.078 627.963 257.579 626.041 249.608 625.95C246.864 624.419 244.905 622.64 243.026 620.12C242.701 599.018 242.96 577.847 242.984 556.738C242.995 547.45 243.815 537.457 242.715 528.25C242.271 524.539 240.937 521.053 239.348 517.697C236.477 511.634 233.166 510.299 227.113 508.11C222.594 509.499 217.604 511.828 214.175 515.146C211.392 517.839 210.136 521.715 209.477 525.452C208.04 533.593 208.97 542.95 208.975 551.263L209.023 602.25C209.019 607.313 210.265 617.189 208.505 621.694C207.948 623.119 207.16 623.707 205.813 624.313C199.584 627.114 168.778 627.109 162.323 624.605C159.913 623.67 158.91 622.757 158.289 620.169C157.006 614.826 157.995 607.705 158.001 602.139L158.038 556.06C158.041 547.865 158.521 539.351 157.745 531.196C157.383 527.394 156.602 523.313 154.993 519.832C152.177 513.742 146.957 510.181 140.851 507.976C139.403 508.625 137.886 509.246 136.516 510.055C130.665 513.51 125.534 519.517 123.238 525.918C119.362 536.72 120.976 554.067 120.986 565.598L121.096 605.12C121.123 609.385 122.142 617.476 120.582 621.303C119.763 623.311 118.026 624.453 116.041 625.149C111.577 626.713 75.4659 626.927 71.8117 624.568C70.8408 623.942 70.8777 623.441 70.6776 622.365C68.8844 612.73 69.9731 598.791 69.9817 588.719L70.0275 522.092C70.0306 512.201 70.2595 502.257 69.9674 492.375C69.8 486.712 68.753 481.029 68.9291 475.365C69.0086 472.809 69.4732 470.119 70.9979 468.001C72.5937 465.785 75.1286 464.741 77.746 464.285C83.0599 463.358 109.313 463.427 114.47 464.708C117.26 465.401 118.677 466.858 121.061 468.161C122.534 468.966 123.713 467.98 125.02 467.219C130.037 464.298 135.521 463.37 141.114 462.104Z"/>
	<path fill="#292929" d="M146.186 468.118C151.678 467.542 157.776 467.665 163.232 468.429C178.357 470.548 187.562 478.657 196.433 490.405C199.61 487.406 201.598 483.457 204.512 480.26C211.882 472.174 223.414 468.156 234.139 467.838C248.495 467.413 263.16 471.415 273.762 481.447C284.111 491.24 287.578 503.852 287.991 517.741C288.537 536.093 288.098 554.6 288.106 572.968C288.112 586.021 288.814 599.527 287.968 612.53C287.858 614.214 287.881 616.86 286.574 618.015C282.675 621.458 260.702 620.137 254.796 619.936C252.559 618.587 250.837 617.303 249.029 615.396C248.128 593.645 248.953 571.531 248.98 549.744C248.992 540.663 249.838 530.644 248.373 521.709C247.553 516.708 245.756 511.3 242.286 507.518C238.601 503.502 233.029 502.044 227.739 501.944C220.543 501.807 213.84 504.341 208.679 509.419C205.925 512.128 204.49 514.92 203.74 518.695C201.982 527.544 203.011 537.955 203.014 547.027L203.061 599.25C203.062 603.671 203.402 608.173 203.112 612.585C202.961 614.882 202.482 616.958 200.598 618.441C197.596 620.804 175.134 620.533 170.902 619.811C168.67 619.431 165.854 618.457 164.832 616.233C162.864 611.951 163.937 603.619 163.945 598.805L164.002 551.588C164.018 542.052 164.838 531.657 163.195 522.256C162.403 517.722 160.891 513.896 158.104 510.205C154.661 505.644 150.025 502.548 144.29 501.888C137.969 501.16 131.571 502.761 126.661 506.886C121.714 511.042 117.819 517.45 116.23 523.686C114.145 531.867 115.047 541.292 115.046 549.682L115.08 591.872C115.091 599.991 115.497 608.341 114.785 616.427C113.19 618.487 111.047 619.353 108.53 619.815C103.885 620.669 81.1625 620.782 77.7869 618.272C76.5444 617.348 76.3826 616.574 76.1723 615.102C75.3649 609.449 75.8606 603.279 75.8596 597.548L75.8719 563.73L75.8856 508.09C75.872 498.312 75.4564 488.392 75.8804 478.629C75.9618 476.755 75.9775 474.619 77.1674 473.082C83.3874 469.498 99.7667 470.335 107.147 470.914C122.369 472.109 111.217 482.049 116.315 487.983C117.957 487.185 118.914 484.338 119.967 482.817C125.962 474.16 136.247 470.04 146.186 468.118Z"/>
	<path fill="#FEFEFE" d="M445.341 461.13C448.884 460.755 452.695 460.977 456.271 460.958C469.356 460.888 481.67 461.219 493.701 467.023C506.508 473.201 517.317 485.404 521.893 498.855C523.674 504.087 524.57 509.563 524.904 515.072C525.904 531.566 524.991 548.589 525 565.135C525.009 582.436 525.856 601.119 525.054 618.261C524.986 619.719 524.817 621.386 524.09 622.684C522.898 624.813 520.508 626.2 518.158 626.669C511.475 628.005 481.812 629.271 476.187 625.447C474.284 624.154 473.523 621.683 473.161 619.527C472.185 613.719 472.941 606.844 472.956 600.915L473.033 561.266C473.046 552.927 473.621 544.1 472.35 535.85C470.942 526.711 467.445 517.936 459.611 512.468C454.798 509.109 448.786 507.114 442.933 508.093C442.697 508.132 442.463 508.177 442.227 508.219C437.083 509.685 432.629 512.516 428.877 516.283C424.284 520.895 421.587 526.168 420.117 532.488C417.963 541.745 418.952 552.325 418.963 561.782C418.984 579.616 419.369 597.492 419.201 615.32C419.173 618.28 418.827 621.861 416.477 623.968C410.808 629.052 381.957 627.043 373.601 626.952C371.697 625.85 369.761 624.627 368.435 622.825Q367.912 622.117 367.609 621.291C366.555 618.454 367.995 594.106 368.006 588.239C368.042 568.208 368.497 548.028 367.932 528.014C367.8 523.339 367.166 518.694 367.047 514.02C366.823 505.139 366.994 496.227 366.975 487.342C366.963 481.87 366.45 475.879 367.432 470.485C367.793 468.501 368.148 466.854 369.966 465.727C371.677 464.666 373.881 464.234 375.858 464.036C380.381 463.581 409.734 463.505 412.914 464.332C416.218 465.19 417.625 467.223 419.256 470.063C427.313 464.589 435.889 462.669 445.341 461.13Z"/>
	<path fill="#292929" d="M450.802 467.181C458.692 466.032 468.369 466.889 476.117 468.658Q477.429 468.955 478.725 469.316Q480.02 469.677 481.297 470.1Q482.574 470.523 483.828 471.008Q485.083 471.494 486.312 472.039Q487.541 472.585 488.743 473.19Q489.944 473.795 491.114 474.457Q492.285 475.12 493.422 475.839Q494.558 476.558 495.659 477.331Q496.759 478.105 497.821 478.931Q498.882 479.757 499.902 480.634Q500.922 481.511 501.898 482.437Q502.874 483.362 503.803 484.334Q504.733 485.306 505.614 486.322Q506.496 487.338 507.326 488.396Q508.157 489.454 508.935 490.551Q509.713 491.648 510.437 492.782C514.137 498.686 517.108 505.843 518.177 512.747C519.439 520.895 519.075 529.498 519.027 537.717C518.972 547.219 519.109 556.752 518.927 566.25C518.828 571.453 518.347 576.639 518.285 581.847C518.143 593.85 520.526 606.319 517.839 618.163C517.25 618.696 516.687 619.132 515.951 619.452C511.045 621.58 487.932 622.185 483.246 620.255C480.704 619.209 479.62 616.336 479.179 613.828C478.24 608.488 478.985 602.036 478.998 596.574L479.061 556.132C479.069 548.302 479.487 540.19 478.597 532.404C478.122 528.248 477.191 524.101 475.641 520.21C472.597 512.565 467.039 506.891 459.467 503.645C450.57 499.831 441.007 500.4 432.143 503.936C431.991 503.979 431.833 504.006 431.686 504.065C424.954 506.785 417.796 515.459 415.519 522.143C411.11 535.087 412.933 551.636 412.963 565.268L413.109 602.339C413.153 605.684 414.263 613.824 412.598 616.633C411.076 619.202 406.064 620.034 403.366 620.352C396.893 621.113 380.747 623.019 375.413 618.396C374.255 617.393 374.054 616.162 373.914 614.695C373.323 608.525 373.925 601.861 373.967 595.633L373.967 561.345L373.913 508.415C373.885 498.319 373.533 488.111 373.973 478.033C374.053 476.214 373.989 473.819 375.26 472.408C376.956 470.525 379.477 469.924 381.922 469.83C386.101 469.669 403.049 469.455 406.482 470.07C408.081 470.357 409.661 470.999 410.801 472.188C413.945 475.467 413.101 481.162 413.012 485.319C416.59 483.14 419.399 480.235 422.656 477.649C430.942 471.072 440.472 468.457 450.802 467.181Z"/>
	<path fill="#FEFEFE" d="M912.363 460.143C931.776 458.885 955.716 459.566 972.123 471.344C981.526 478.094 989.766 488.746 991.609 500.412C992.006 502.926 992.908 513.141 991.056 514.998C987.134 518.931 967.99 517.932 962.524 518.169C956.528 518.43 950.724 519.131 944.692 519.036C944.603 518.953 944.515 518.867 944.423 518.786C939.012 514.045 937.578 506.015 930.001 503.557C925.409 502.067 919.05 502.834 914.821 505.103C912.767 506.206 911.079 507.786 910.492 510.108C909.855 512.631 910.893 513.982 912.215 516.036C918.943 519.276 926.424 520.22 933.731 521.261C950.929 523.711 970.283 525.995 983.321 538.687C992.28 547.408 995.896 560.047 995.953 572.341C995.977 577.458 994.549 581.781 993.579 586.73C991.304 598.338 991.578 602.87 982.661 611.682C968.012 626.16 949.761 630.211 929.75 630.016C909.123 630.187 889.94 629.025 872.996 615.664C862.602 607.468 854.32 593.987 852.947 580.698C852.701 578.323 852.471 573.508 854.513 571.743C858.288 568.482 883.448 567.429 889.594 567.09C893.022 566.9 898.704 566.184 901.85 567.226C905.805 568.538 910.355 579.81 914.412 583.256C918.463 586.696 922.208 587.403 927.376 586.99C932.49 586.581 939.024 584.598 942.318 580.401C943.358 579.076 944.019 577.518 943.767 575.803C942.482 567.069 921.46 565.949 914.666 564.889C908.313 563.898 901.922 562.981 895.674 561.441C888.578 559.691 881.87 557.029 875.906 552.741C867.176 546.463 860.098 537.046 858.365 526.263C857.716 522.23 857.879 518.093 857.895 514.021C857.936 503.161 858.448 492.701 865.226 483.636C867.37 480.768 870.074 478.2 872.644 475.721C884.444 464.337 896.701 462.42 912.363 460.143Z"/>
	<path fill="#292929" d="M921.357 466.747C936.409 466.549 951.062 468.245 964.204 476.104C976.9 483.696 982.64 494.946 986.124 508.925C977.811 511.699 969.612 510.988 961.019 511.303C957.227 511.442 953.316 511.948 949.534 511.645C947.779 511.504 943.191 502.827 941.432 500.891C937.998 497.112 931.587 496.116 926.728 495.917C919.752 495.631 911.75 496.008 906.459 501.182C903.405 504.167 902.063 508.322 902.215 512.546C902.392 517.495 905.177 521.264 909.554 523.434C914.809 526.038 921.277 526.771 927.026 527.61C944.384 530.144 964.712 532.115 977.861 545.041C985.529 552.579 988.921 563.514 988.954 574.103C988.991 586.036 985.106 597.56 976.517 605.994C960.474 621.749 940.898 623.34 919.578 623.259C911.782 623.026 904.319 621.465 896.923 619.031C883.373 614.571 871.488 605.943 865.066 592.946C863.512 589.799 859.232 580.813 860.356 577.489C864.845 574.432 889.621 574.573 897.003 573.166C897.16 573.135 897.318 573.102 897.475 573.07C900.438 578.301 903.318 584.422 907.654 588.638C912.38 593.234 919.385 594.001 925.678 593.984C933.242 593.963 942.18 592.729 947.61 586.924C950.682 583.639 951.926 579.222 951.574 574.777C951.163 569.578 947.797 565.474 943.192 563.235C938.739 561.07 933.376 560.549 928.524 559.76C910.788 556.875 890.997 555.506 876.981 542.961Q876.279 542.327 875.61 541.66Q874.94 540.992 874.305 540.292Q873.669 539.591 873.069 538.861Q872.469 538.13 871.906 537.37Q871.343 536.61 870.819 535.824Q870.294 535.037 869.809 534.225Q869.324 533.413 868.88 532.578Q868.436 531.743 868.034 530.888Q867.632 530.032 867.273 529.157Q866.914 528.282 866.599 527.391Q866.284 526.499 866.014 525.593Q865.743 524.687 865.518 523.769Q865.293 522.85 865.114 521.922Q864.934 520.993 864.801 520.057Q864.668 519.121 864.582 518.179Q864.496 517.238 864.456 516.293C863.903 504.358 867.292 492.891 875.574 484.049C887.574 471.239 904.435 467.37 921.357 466.747Z"/>
	<path fill="#FEFEFE" d="M828.818 646.051L851.109 645.882C853.523 645.876 859.149 645.428 860.858 647.314C865.785 652.753 864.049 700.199 864.062 709.676C871.758 701.615 877.776 690.088 887.38 684.17C894.263 683.664 919.381 682.867 924.825 685.271C926.966 687.698 926.044 693.383 925.955 696.431C923.623 700.54 919.932 704.497 916.877 708.107C908.552 717.941 898.947 727.572 891.739 738.219C902.607 748.986 911.811 761.437 922.058 772.798C923.815 775.34 926.108 777.577 928.012 780.028C928.057 782.84 928.874 790.486 927.02 792.586C924.824 795.074 894.591 794.012 889.596 793.953C889.484 793.885 889.37 793.82 889.26 793.751C889.076 793.635 888.895 793.514 888.712 793.398C882.685 789.562 867.037 770.368 864.135 763.526C863.904 769.987 865.608 784.973 863.056 790.159C862.202 791.894 860.769 793.139 858.904 793.669C854.636 794.884 829.198 794.526 825.709 792.454C823.863 782.547 824.966 769.17 824.969 758.94L824.961 693.372L824.959 663.778C824.962 659.668 824.437 654.706 825.109 650.679C825.503 648.322 827.006 647.373 828.818 646.051Z"/>
	<path fill="#292929" d="M833.33 652.512C838.759 652.306 849.974 651.556 854.956 653.115C856.395 655.022 856.754 657.29 857.018 659.622C857.659 665.279 857.192 671.366 857.196 677.085C857.202 687.246 857.382 697.408 857.311 707.569C857.257 715.233 856.765 723.046 857.299 730.688L857.363 731.548C865.418 722.391 872.55 712.353 880.355 702.958C882.993 699.782 885.575 696.297 888.616 693.503C889.789 692.425 891.047 691.544 892.616 691.17C898.801 689.696 913.285 690.507 920.04 690.83C913.728 699.162 906.789 707.075 900.037 715.054C893.75 722.482 887.578 730.087 880.833 737.108C883.472 741.523 887.612 745.529 890.994 749.422Q899.085 758.726 907.01 768.173C910.148 771.843 918.812 780.514 920.564 784.18C921.045 785.186 920.907 785.391 920.562 786.379C920.095 786.658 920.005 786.742 919.535 786.928C916.318 788.198 910.951 787.569 907.522 787.574C903.756 787.58 897.436 788.331 893.943 786.835C886.652 783.711 863.085 747.9 858.086 745.967L857.313 746.357C856.612 750.114 857.174 754.447 857.251 758.286C857.426 767.079 857.892 776.27 857.185 785.026L857.121 785.771C856.248 786.153 855.369 786.521 854.461 786.817C850.02 788.266 836.469 788.496 832.222 786.401C831.418 785.433 831.5 784.309 831.431 783.105C830.97 774.966 831.419 766.577 831.432 758.417L831.399 709.345L831.373 673.401C831.371 667.789 830.91 661.641 831.546 656.073C831.743 654.347 832.185 653.811 833.33 652.512Z"/>
	<path fill="#FEFEFE" d="M565.371 682.148C578.649 680.419 594.523 682.516 605.882 689.868C614.247 695.281 622.762 704.13 624.726 714.238C625.352 717.457 625.997 727.061 623.875 729.531C620.407 733.568 595.252 732.03 589.487 731.992C583.952 726.143 583.083 722.019 575.256 718.095C572.978 718.659 570.744 719.212 568.653 720.317C563.278 723.157 559.897 727.743 558.232 733.541Q558.065 734.112 557.926 734.69Q557.788 735.268 557.679 735.853Q557.569 736.437 557.49 737.027Q557.41 737.616 557.36 738.208Q557.31 738.801 557.29 739.395Q557.27 739.989 557.28 740.584Q557.29 741.179 557.33 741.772Q557.37 742.365 557.439 742.956Q557.509 743.546 557.608 744.133Q557.707 744.719 557.836 745.299Q557.964 745.88 558.122 746.453Q558.28 747.027 558.466 747.591Q558.652 748.156 558.867 748.711Q559.081 749.265 559.323 749.808Q559.565 750.351 559.834 750.882Q560.104 751.412 560.399 751.928C563.458 757.271 567.937 759.373 573.596 760.96C583.775 758.168 583.612 751.692 590.793 746.021C596.492 745.901 602.081 746.673 607.759 746.866C613.107 747.047 618.522 746.715 623.844 747.304C625.013 748.37 625.733 749.095 625.991 750.719C627.296 758.921 624.171 768.734 619.415 775.442C611.607 786.452 600.077 793.214 586.841 795.332C570.908 797.88 551.256 796.618 537.87 786.793C525.844 777.967 520.742 767.524 518.61 753C517.871 747.97 517.954 742.928 517.943 737.855C517.918 725.68 518.606 713.957 526.218 703.827C536.546 690.084 548.769 684.472 565.371 682.148Z"/>
	<path fill="#292929" d="M573.882 688.709C580.791 689.015 587.561 689.816 593.961 692.594C603.953 696.932 613 704.729 616.984 715.064C617.953 717.576 619.401 721.367 618.264 723.937C615.372 726.258 598.585 725.183 594.231 725.159C592.974 723.065 591.736 720.935 590.145 719.073C586.322 714.599 581.332 711.66 575.394 711.295Q574.807 711.255 574.219 711.245Q573.631 711.236 573.043 711.257Q572.455 711.278 571.869 711.329Q571.283 711.38 570.701 711.462Q570.118 711.544 569.541 711.656Q568.963 711.768 568.392 711.91Q567.821 712.052 567.258 712.223Q566.696 712.394 566.143 712.594Q565.589 712.795 565.047 713.023Q564.505 713.252 563.976 713.508Q563.447 713.765 562.931 714.049Q562.416 714.332 561.916 714.642Q561.416 714.952 560.933 715.288Q560.45 715.623 559.985 715.984Q559.52 716.344 559.074 716.728Q558.628 717.112 558.203 717.518C552.137 723.303 550.409 730.728 550.338 738.778C550.265 747.065 551.422 755.767 557.682 761.856C562.296 766.345 568.447 767.994 574.759 767.671C588.722 766.957 586.393 761.969 593.806 754.451C596.454 751.765 604.545 752.825 608.205 752.882C611.242 752.882 614.867 752.192 617.75 753.189C618.522 753.989 618.786 754.19 618.912 755.349C619.48 760.596 613.467 770.04 610.12 773.935C602.001 783.383 589.503 788.552 577.241 789.442C564.181 790.39 550.193 786.769 540.215 778.097C530.018 769.233 525.609 757.598 524.674 744.256C523.691 730.212 525.999 716.339 535.623 705.525C546.049 693.808 558.558 689.597 573.882 688.709Z"/>
	<path fill="#FEFEFE" d="M766.357 682.144C774.953 681.471 785.305 682.12 793.538 684.812Q794.61 685.161 795.663 685.563Q796.716 685.965 797.747 686.419Q798.779 686.872 799.787 687.376Q800.795 687.88 801.777 688.433Q802.759 688.986 803.713 689.587Q804.666 690.188 805.589 690.835Q806.512 691.483 807.401 692.175Q808.291 692.867 809.145 693.602Q810 694.337 810.816 695.114Q811.633 695.89 812.411 696.706Q813.188 697.522 813.925 698.375Q814.661 699.229 815.354 700.117Q816.048 701.006 816.696 701.928Q817.345 702.849 817.947 703.802Q818.549 704.755 819.103 705.736Q819.658 706.718 820.163 707.725C822.565 712.586 824.706 724.383 822.672 729.409C822.278 730.382 821.305 730.969 820.34 731.323C817.881 732.226 790.013 732.713 788 731.755C785.046 730.349 781.561 723.837 778.511 721.329C776.771 719.898 774.196 718.977 772.141 718.052C770.426 718.614 768.713 719.236 767.073 719.991C762.17 722.247 758.339 726.785 756.553 731.834C754.435 737.819 755.123 744.732 757.872 750.415C760.903 756.683 765.772 758.709 771.927 760.899C780.762 758.253 779.455 755.451 784.467 749.439C786.201 747.36 788.399 747.072 790.975 746.963C797.047 746.704 816.13 746.091 821.279 747.431C822.422 747.728 823.184 748.502 824.021 749.288C824.39 758.762 822.808 767.458 817.345 775.414C809.774 786.44 798.325 793 785.28 795.249C769.673 797.94 750.505 796.612 737.332 787.15C725.745 778.828 718.708 766.885 716.52 752.851C714.281 738.494 715.667 715.125 724.525 703.142C735.837 687.839 748.605 684.674 766.357 682.144Z"/>
	<path fill="#292929" d="M767.337 689.176C777.507 687.496 790.163 690.572 798.791 696.11C806.571 701.104 814.937 710.552 816.743 719.886C817.071 721.583 816.932 722.693 815.985 724.187C813.256 726.27 796.177 725.156 791.824 725.116C789.776 720.571 787.046 716.748 782.715 714.112C777.723 711.073 771.548 710.412 765.942 711.929Q765.368 712.088 764.803 712.276Q764.238 712.463 763.683 712.679Q763.129 712.896 762.586 713.14Q762.043 713.384 761.513 713.655Q760.983 713.927 760.467 714.225Q759.952 714.523 759.452 714.847Q758.953 715.17 758.47 715.519Q757.988 715.868 757.523 716.241Q757.059 716.614 756.615 717.009Q756.17 717.405 755.746 717.823Q755.322 718.241 754.92 718.68Q754.518 719.12 754.138 719.578Q753.759 720.037 753.403 720.515Q753.048 720.992 752.717 721.487Q752.386 721.983 752.081 722.494Q751.776 723.005 751.497 723.531C747.185 731.548 747.43 743.312 750.152 751.822C752.059 757.781 756.012 762.88 761.698 765.648C766.956 768.208 774.371 768.62 779.858 766.482C786.085 764.055 789.039 758.816 791.565 753.041C794.621 752.927 797.691 752.937 800.75 752.895C804.852 752.863 809.178 752.548 813.257 752.828C814.798 752.934 815.487 753.082 816.525 754.213C817.442 758.708 813.597 766.234 811.112 769.96C804.229 780.276 792.862 786.439 780.858 788.693Q779.64 788.933 778.412 789.113Q777.184 789.293 775.948 789.411Q774.713 789.53 773.473 789.587Q772.233 789.645 770.992 789.641Q769.751 789.636 768.511 789.571Q767.272 789.505 766.037 789.378Q764.802 789.251 763.575 789.063Q762.349 788.875 761.132 788.626Q759.916 788.378 758.714 788.069Q757.512 787.761 756.326 787.393Q755.141 787.025 753.975 786.599Q752.809 786.173 751.666 785.69Q750.523 785.207 749.405 784.668Q748.287 784.129 747.197 783.535Q746.107 782.941 745.048 782.293Q743.989 781.646 742.963 780.947C731.68 773.116 725.554 761.905 723.295 748.498C721.093 735.424 723.142 719.049 731.131 708.13C740.018 695.983 753.002 691.3 767.337 689.176Z"/>
	<path fill="#FEFEFE" d="M313.254 465.089C321.25 464.643 339.475 464.24 346.896 465.282C349.638 465.667 352.917 466.26 354.639 468.627C355.661 473.172 355.001 478.854 355.001 483.567L355.006 512.842C355.016 547.461 355.827 582.728 355.048 617.27C355.011 618.907 355.116 620.876 354.201 622.296C352.674 624.671 349.697 625.362 347.122 625.914Q335.975 626.1 324.827 626.109C321.055 626.129 316.998 626.521 313.268 626.027C310.736 625.692 308.262 624.639 306.768 622.49C305.482 620.639 305.006 618.207 304.911 615.992C304.466 605.639 304.988 595.016 304.994 584.639L304.982 519.38L304.975 485.845C304.974 480.387 304.265 473.792 305.368 468.509C307.365 465.697 310.082 465.689 313.254 465.089Z"/>
	<path fill="#292929" d="M318.053 471.154C326.845 470.087 341.047 469.996 349.057 473.49L349.037 576.781C349.047 584.163 350.024 610.737 348.651 616.564C346.954 618.828 344.779 619.308 342.125 619.959C335.404 620.336 319.167 621.445 313.624 618.495C312.55 617.924 312.053 617.487 311.762 616.264C310.094 609.244 310.958 600.663 310.954 593.44L310.952 555.76L311.074 492.352C311.111 487.635 310.485 482.842 310.642 478.171C310.697 476.537 311.023 474.635 312.006 473.282C313.318 471.476 316.007 471.449 318.053 471.154Z"/>
	<path fill="#FEFEFE" d="M632.867 646.109C640.35 645.797 647.991 645.829 655.48 645.904C658.54 645.935 663.108 646.083 665.196 648.695C666.041 649.751 666.123 651.764 666.166 653.076C666.447 661.726 666.006 670.549 666.008 679.22L666.025 741.058C666.026 747.821 665.86 754.617 666.036 761.375C666.296 771.383 667.319 780.501 665.641 790.58C664.623 792.191 663.372 792.818 661.739 793.741C660.987 793.842 660.261 793.939 659.502 793.972C652.752 794.27 633.294 795.57 628.782 791.36C626.861 784.778 627.959 771.778 627.962 764.398L627.977 720.439L628.066 665.769C628.082 661.722 627.69 657.624 627.778 653.6C627.803 652.417 627.913 650.931 628.381 649.826C629.307 647.638 630.83 647.044 632.867 646.109Z"/>
	<path fill="#292929" d="M636.885 652.526C642.073 652.387 647.446 651.985 652.621 652.327C654.754 652.468 657.826 652.714 659.237 654.56C660.142 655.743 660.062 658.978 660.095 660.521C660.726 689.566 660.032 718.762 660.082 747.823C660.095 754.884 661.182 778.516 660.003 783.96C659.709 785.318 658.202 786 657.159 786.768C656.281 787.069 655.413 787.292 654.491 787.417C650.627 787.941 637.925 788.76 635.052 785.955C634.163 785.087 634.42 778.813 634.412 777.203L634.415 691.652L634.312 667.728C634.291 663.712 633.889 659.172 634.481 655.226C634.718 653.65 635.681 653.371 636.885 652.526Z"/>
	<path fill="#FEFEFE" d="M678.923 687.069C686.262 686.814 707.097 685.486 712.312 689.49C713.717 697.403 713.393 787.871 712.671 789.574C711.883 791.434 709.348 792.782 707.718 793.745C700.959 794.99 686.33 794.042 678.823 794.018C676.967 792.502 675.486 791.03 674.028 789.126C673.847 777.764 673.211 693.882 674.341 690.56C674.972 688.702 677.323 687.846 678.923 687.069Z"/>
	<path fill="#292929" d="M684.052 693.587C689.052 693.442 702.46 691.827 705.93 695.303C706.824 696.199 706.873 776.671 706.409 784.44C705.627 785.938 704.131 786.566 702.723 787.384C702.335 787.418 701.946 787.44 701.557 787.454C695.978 787.652 685.698 789.288 681.332 785.231C680.579 783.533 680.402 781.852 680.341 780.011C679.817 764.177 680.502 748.108 680.454 732.245C680.42 721.149 679.4 706.685 680.66 695.86C681.601 694.535 682.603 694.281 684.052 693.587Z"/>
	<path fill="#FEFEFE" d="M324.346 398.115C333.205 397.367 342.694 398.255 349.948 403.897C355.072 407.884 358.095 413.657 358.953 420.048C360.139 428.883 359.951 439.99 354.22 447.245C349.784 452.862 343.72 456.285 336.625 457.014C328.367 457.081 318.44 458.689 311.212 454.063C305.465 450.384 301.558 444.024 300.302 437.377C298.644 428.595 299.023 416.27 304.316 408.835C309.526 401.514 315.964 399.559 324.346 398.115Z"/>
	<path fill="#292929" d="M324.78 404.994Q325.348 404.878 325.922 404.791Q326.495 404.704 327.072 404.645Q327.649 404.586 328.229 404.555Q328.808 404.524 329.388 404.522Q329.968 404.52 330.547 404.547Q331.127 404.574 331.704 404.629Q332.281 404.684 332.855 404.767Q333.429 404.851 333.998 404.963Q334.568 405.074 335.131 405.214Q335.694 405.354 336.249 405.521Q336.804 405.688 337.351 405.883Q337.897 406.077 338.434 406.298Q338.97 406.519 339.495 406.766Q340.019 407.013 340.531 407.286Q341.043 407.559 341.541 407.857Q342.039 408.154 342.521 408.476Q343.004 408.798 343.47 409.143Q343.936 409.489 344.384 409.856Q344.833 410.224 345.263 410.614Q345.693 411.003 346.103 411.413Q346.513 411.823 346.902 412.253Q347.292 412.683 347.659 413.132Q348.027 413.58 348.372 414.046Q348.717 414.512 349.039 414.995Q349.361 415.478 349.659 415.975Q349.956 416.473 350.229 416.985Q350.502 417.497 350.749 418.022Q350.996 418.547 351.217 419.083Q351.438 419.619 351.633 420.166Q351.827 420.712 351.994 421.268Q352.161 421.823 352.301 422.386Q352.44 422.949 352.552 423.518Q352.664 424.087 352.747 424.661Q352.831 425.235 352.886 425.813Q352.941 426.39 352.967 426.969Q352.994 427.549 352.992 428.129Q352.99 428.709 352.959 429.288Q352.929 429.867 352.87 430.444Q352.81 431.021 352.723 431.595Q352.635 432.168 352.52 432.736Q352.404 433.305 352.261 433.867Q352.117 434.429 351.946 434.983Q351.775 435.537 351.577 436.082Q351.379 436.627 351.154 437.162Q350.93 437.697 350.679 438.22Q350.428 438.743 350.152 439.253Q349.875 439.763 349.574 440.259Q349.273 440.754 348.948 441.235Q348.623 441.715 348.274 442.179Q347.926 442.642 347.555 443.088Q347.184 443.534 346.792 443.961Q346.4 444.389 345.987 444.796Q345.574 445.203 345.141 445.59Q344.709 445.976 344.258 446.341Q343.807 446.705 343.338 447.047Q342.87 447.389 342.385 447.708Q341.9 448.026 341.4 448.321Q340.9 448.615 340.387 448.884Q339.873 449.153 339.346 449.397Q338.82 449.64 338.282 449.858Q337.745 450.075 337.197 450.266Q336.649 450.456 336.092 450.619Q335.536 450.783 334.972 450.919Q334.408 451.054 333.838 451.162Q333.273 451.269 332.704 451.348Q332.134 451.427 331.561 451.478Q330.989 451.529 330.414 451.552Q329.84 451.576 329.265 451.571Q328.69 451.566 328.116 451.533Q327.542 451.5 326.97 451.439Q326.398 451.378 325.83 451.289Q325.262 451.2 324.699 451.083Q324.136 450.967 323.579 450.823Q323.023 450.679 322.474 450.508Q321.925 450.337 321.385 450.139Q320.845 449.942 320.315 449.718Q319.785 449.494 319.267 449.245Q318.749 448.996 318.244 448.722Q317.739 448.447 317.247 448.148Q316.756 447.85 316.28 447.528Q315.804 447.205 315.344 446.86Q314.884 446.515 314.442 446.148Q313.999 445.78 313.575 445.392Q313.151 445.003 312.747 444.595Q312.343 444.186 311.959 443.758Q311.575 443.33 311.212 442.884Q310.849 442.438 310.509 441.974Q310.168 441.511 309.851 441.032Q309.534 440.552 309.24 440.058Q308.947 439.563 308.678 439.055Q308.408 438.547 308.165 438.026Q307.921 437.506 307.702 436.974Q307.484 436.442 307.292 435.9Q307.1 435.358 306.935 434.807Q306.77 434.256 306.632 433.698Q306.494 433.14 306.383 432.576Q306.272 432.012 306.189 431.443Q306.106 430.874 306.051 430.302Q305.996 429.729 305.969 429.155Q305.942 428.581 305.943 428.006Q305.944 427.431 305.973 426.856Q306.002 426.282 306.059 425.71Q306.116 425.138 306.201 424.569Q306.286 424.001 306.399 423.437Q306.512 422.873 306.652 422.315Q306.792 421.758 306.959 421.208Q307.126 420.657 307.32 420.116Q307.514 419.575 307.734 419.044Q307.954 418.512 308.2 417.993Q308.445 417.473 308.716 416.966Q308.987 416.458 309.282 415.965Q309.578 415.472 309.897 414.993Q310.216 414.515 310.558 414.053Q310.9 413.591 311.264 413.146Q311.628 412.701 312.014 412.274Q312.399 411.848 312.805 411.44Q313.211 411.033 313.636 410.646Q314.062 410.259 314.505 409.894Q314.949 409.528 315.41 409.184Q315.871 408.841 316.348 408.52Q316.826 408.199 317.318 407.902Q317.81 407.606 318.317 407.333Q318.823 407.06 319.342 406.813Q319.861 406.565 320.391 406.344Q320.922 406.122 321.462 405.926Q322.003 405.73 322.553 405.561Q323.102 405.392 323.659 405.25Q324.217 405.109 324.78 404.994Z"/>
	<path fill="#FEFEFE" d="M489.674 753.07C495.085 752.944 502.017 752.059 507.236 753.473C511.282 754.57 514.887 757.481 516.928 761.124C519.989 766.586 520.169 776.663 518.217 782.587C516.255 788.537 511.716 792.21 506.305 794.902C500.024 795.294 491.731 795.982 485.935 793.303Q485.217 792.977 484.538 792.577Q483.858 792.178 483.224 791.71Q482.59 791.241 482.008 790.71Q481.427 790.178 480.904 789.588Q480.381 788.998 479.922 788.357Q479.463 787.716 479.074 787.031Q478.685 786.345 478.37 785.623Q478.054 784.9 477.816 784.149C475.942 778.326 476.05 766.895 478.885 761.357C481.085 757.061 485.156 754.43 489.674 753.07Z"/>
	<path fill="#292929" d="M497.738 759.282Q498.086 759.276 498.435 759.288Q498.783 759.299 499.131 759.327Q499.478 759.355 499.824 759.399Q500.169 759.444 500.512 759.505Q500.856 759.566 501.195 759.643Q501.535 759.721 501.871 759.815Q502.207 759.908 502.537 760.018Q502.868 760.127 503.193 760.253Q503.519 760.378 503.837 760.519Q504.156 760.66 504.468 760.816Q504.78 760.972 505.083 761.142Q505.387 761.313 505.683 761.498Q505.978 761.683 506.264 761.882Q506.55 762.081 506.826 762.293Q507.103 762.506 507.368 762.731Q507.634 762.957 507.889 763.195Q508.143 763.433 508.386 763.683Q508.629 763.933 508.86 764.194Q509.091 764.455 509.309 764.727Q509.526 764.999 509.731 765.281Q509.936 765.564 510.126 765.855Q510.317 766.147 510.494 766.447Q510.671 766.748 510.833 767.056Q510.995 767.365 511.142 767.681Q511.289 767.997 511.421 768.319Q511.552 768.642 511.668 768.971Q511.784 769.299 511.885 769.633Q511.985 769.967 512.069 770.305Q512.153 770.643 512.221 770.985Q512.289 771.327 512.34 771.672Q512.391 772.016 512.426 772.363Q512.461 772.71 512.479 773.058Q512.497 773.406 512.498 773.755Q512.5 774.103 512.484 774.451Q512.469 774.799 512.437 775.146Q512.405 775.493 512.357 775.839Q512.308 776.184 512.243 776.526Q512.178 776.868 512.096 777.207Q512.015 777.546 511.917 777.881Q511.82 778.215 511.706 778.545Q511.593 778.874 511.464 779.198Q511.335 779.522 511.19 779.839Q511.045 780.156 510.886 780.466Q510.726 780.776 510.552 781.077Q510.378 781.379 510.189 781.672Q510.001 781.965 509.798 782.249Q509.596 782.533 509.38 782.807Q509.165 783.081 508.936 783.344Q508.708 783.607 508.467 783.859Q508.226 784.11 507.973 784.35Q507.72 784.59 507.456 784.818Q507.192 785.045 506.918 785.26Q506.643 785.475 506.359 785.676Q506.074 785.877 505.78 786.065Q505.487 786.252 505.184 786.425Q504.882 786.598 504.571 786.757Q504.261 786.915 503.943 787.058Q503.625 787.202 503.301 787.33Q502.977 787.458 502.647 787.57Q502.317 787.682 501.982 787.778Q501.647 787.875 501.308 787.955Q500.969 788.035 500.626 788.099Q500.284 788.163 499.938 788.21Q499.593 788.257 499.246 788.288Q498.761 788.331 498.275 788.341Q497.788 788.351 497.302 788.329Q496.816 788.307 496.332 788.252Q495.848 788.197 495.37 788.11Q494.891 788.024 494.419 787.905Q493.947 787.786 493.484 787.636Q493.021 787.486 492.569 787.305Q492.117 787.124 491.678 786.914Q491.239 786.703 490.816 786.463Q490.392 786.224 489.985 785.957Q489.579 785.689 489.191 785.395Q488.803 785.102 488.435 784.782Q488.068 784.463 487.723 784.12Q487.377 783.777 487.056 783.412Q486.734 783.046 486.438 782.66Q486.142 782.274 485.872 781.869Q485.602 781.464 485.36 781.042Q485.118 780.62 484.905 780.182Q484.691 779.745 484.508 779.294Q484.324 778.843 484.171 778.381Q484.018 777.919 483.896 777.448Q483.774 776.977 483.684 776.498Q483.595 776.02 483.537 775.537Q483.479 775.053 483.454 774.567Q483.428 774.081 483.436 773.595Q483.443 773.108 483.483 772.623Q483.523 772.138 483.595 771.656Q483.667 771.175 483.771 770.7Q483.875 770.224 484.011 769.757Q484.147 769.29 484.314 768.832Q484.481 768.375 484.678 767.93Q484.875 767.485 485.101 767.054Q485.327 766.623 485.582 766.208Q485.837 765.794 486.119 765.397Q486.401 765 486.708 764.623Q487.016 764.246 487.348 763.89Q487.681 763.535 488.036 763.202Q488.392 762.87 488.768 762.561Q489.145 762.253 489.542 761.971Q489.939 761.689 490.353 761.434Q490.768 761.179 491.198 760.952Q491.629 760.726 492.074 760.528Q492.519 760.331 492.976 760.164Q493.433 759.997 493.901 759.86Q494.368 759.724 494.843 759.62Q495.319 759.515 495.8 759.443Q496.281 759.37 496.766 759.33Q497.251 759.29 497.738 759.282Z"/>
	<path fill="#FEFEFE" d="M684.677 646.071C690.171 645.888 696.146 645.52 701.499 646.89C705.774 647.984 709.78 650.234 711.992 654.182C714.907 659.384 714.962 669.699 713.106 675.33C711.248 680.968 706.607 683.281 701.652 685.741C696.293 686.948 689.182 686.062 683.656 685.977C679.22 683.504 675.54 680.841 673.791 675.852C671.853 670.325 671.868 659.339 674.544 654.057C676.713 649.775 680.189 647.433 684.677 646.071Z"/>
	<path fill="#292929" d="M689.37 652.69C691.748 652.664 694.122 652.669 696.448 653.228C700.334 654.162 703.915 656.409 705.915 659.938Q706.226 660.49 706.479 661.071Q706.733 661.651 706.925 662.255Q707.118 662.859 707.247 663.479Q707.377 664.099 707.443 664.729Q707.508 665.359 707.509 665.993Q707.51 666.626 707.446 667.257Q707.382 667.887 707.253 668.507Q707.125 669.128 706.934 669.732C705.269 674.976 701.428 677.054 696.867 679.382L696.281 679.457C692.902 679.915 690.263 680.032 687.107 678.542C683.841 677 681.277 674.288 680.14 670.838C678.873 666.993 679.266 662.087 681.312 658.568C683.119 655.459 685.952 653.595 689.37 652.69Z"/>
</svg>
