<?xml version="1.0" encoding="utf-8" ?>
<svg xmlns="http://www.w3.org/2000/svg" xmlns:xlink="http://www.w3.org/1999/xlink" width="1024" height="1024">
	<path fill="#CECDCD" d="M863.995 157.125C866.664 156.967 868.922 157.32 871.511 157.842C872.842 159.048 874.221 160.28 875.101 161.869C879.632 170.057 879.753 185.701 883.782 195.915C893.803 193.124 904.189 185.548 914.487 181.967C917.068 182.363 919.778 182.659 922.153 183.808C924.735 185.058 926.26 187.053 927.148 189.753C932.385 205.673 907.894 213.084 901.884 225.279C901.786 225.478 901.692 225.68 901.596 225.88C905.519 229.381 908.808 233.602 913.045 236.773C916.415 239.296 920.431 241.07 924.025 243.269C927.802 245.58 932.329 249.028 933.214 253.618C933.806 256.688 932.615 259.885 930.909 262.406C922.216 275.259 899.919 255.339 887.992 259.204C882.289 261.052 893.278 286.852 887.677 295.348C886.337 297.382 884.238 298.48 881.874 298.866C868.299 301.085 867.963 273.264 859.459 268.282C853.191 264.609 839.273 287.169 833.805 290.957C832.403 291.928 830.566 292.351 828.938 292.796C825.75 291.784 822.568 290.559 820.497 287.799C814.681 280.048 825.782 265.1 826.776 256.517C826.944 255.057 826.977 253.652 826.067 252.49C823.204 251.736 820.08 251.994 817.129 252.002C806.4 252.031 796.406 252.482 786.214 256.35C765.562 264.188 756.662 279.838 748.098 299.022C756.34 306.563 774.912 303.397 782.43 311.219C790.874 320.006 780.06 334.145 780.005 344.362C780.004 344.547 780.013 344.733 780.017 344.918C784.348 348.566 788.992 351.843 793.312 355.514C804.231 364.792 813.468 375.489 821.478 387.34Q822.559 388.969 823.6 390.623Q824.641 392.278 825.642 393.957Q826.642 395.637 827.602 397.34Q828.561 399.043 829.478 400.77Q830.396 402.496 831.271 404.244Q832.146 405.992 832.978 407.761Q833.81 409.53 834.598 411.318Q835.387 413.107 836.132 414.914Q836.877 416.722 837.577 418.547Q838.278 420.372 838.934 422.213Q839.59 424.055 840.201 425.912Q840.811 427.769 841.377 429.64Q841.942 431.512 842.461 433.396Q842.981 435.281 843.454 437.177Q843.927 439.074 844.354 440.982Q844.781 442.889 845.162 444.807Q845.542 446.725 845.875 448.651Q846.209 450.577 846.495 452.511Q846.781 454.444 847.021 456.385Q847.26 458.325 847.451 460.27Q847.643 462.216 847.787 464.165Q847.932 466.115 848.028 468.067Q848.125 470.02 848.174 471.974Q848.223 473.928 848.224 475.883Q848.225 477.838 848.179 479.792Q848.133 481.746 848.039 483.699Q847.945 485.652 847.803 487.601Q847.661 489.551 847.472 491.497Q847.283 493.442 847.047 495.383Q846.81 497.323 846.526 499.258Q846.242 501.192 845.912 503.118Q845.581 505.045 845.203 506.963C837.189 547.532 812.675 581.339 778.555 604.095C771.99 608.351 764.881 612.548 757.727 615.72C721.726 631.686 677.768 634.23 640.802 619.815C602.118 604.73 570.27 575.729 553.542 537.443C540.923 508.559 538.471 477.073 544.157 446.256C545.638 438.232 547.51 429.871 550.525 422.266C556.106 408.187 563.816 392.363 572.923 380.186C588.157 359.816 612.119 342.627 635.037 332.037C639.945 329.769 644.83 327.641 650 326.023C653.974 324.779 659.887 323.919 663.472 321.945C667.159 319.914 669.019 307.417 670.161 303.263C671.698 297.679 673.211 290.075 678.783 287.136C685.251 283.724 710.591 291.884 718.205 294.191C725.494 280.332 727.897 270.135 738.783 257.261C757.907 234.645 780.245 226.528 809.062 223.415C814.165 222.864 820.099 223.807 824.987 222.903C826.475 222.628 826.967 221.931 827.813 220.801C827.415 215.097 808.879 200.79 805.475 193.758C803.706 190.105 805.798 185.613 807.147 182.178C810.052 180.644 812.914 179.625 816.051 178.665C816.209 178.712 816.368 178.757 816.525 178.807C816.787 178.889 817.046 178.981 817.308 179.062C823.3 180.92 829.027 185.442 834.466 188.629C839.482 191.569 844.649 194.147 849.91 196.616C853.243 184.275 851.865 169.702 858.918 158.812C860.569 158.163 862.307 157.673 863.995 157.125Z"/>
	<path fill="#FDFCFC" d="M686.316 371.191C686.81 371.108 686.931 371.079 687.5 371.036C704.761 369.722 729.949 376.626 742.989 388.256C753.48 397.612 760.27 409.12 760.998 423.369C761.734 437.743 757.897 451.159 748.742 462.353C745.803 465.947 742.374 469.126 739.26 472.573C742.847 476.501 747.708 479.169 751.52 482.913C760.924 492.148 764.512 505.108 764.494 517.992C764.47 535.85 759.155 550.948 746.346 563.5C731.197 578.345 710.148 582.95 689.435 582.533Q687.786 582.504 686.14 582.395Q684.495 582.285 682.856 582.094Q681.218 581.904 679.591 581.633Q677.964 581.363 676.352 581.013Q674.741 580.662 673.148 580.233Q671.556 579.804 669.986 579.297Q668.417 578.791 666.874 578.207Q665.331 577.624 663.819 576.966Q662.307 576.307 660.828 575.576Q659.35 574.844 657.91 574.04Q656.47 573.237 655.071 572.363Q653.672 571.49 652.317 570.549Q650.962 569.608 649.656 568.601Q648.349 567.595 647.093 566.526Q645.838 565.456 644.636 564.326Q643.435 563.197 642.29 562.009C630.809 549.899 626.632 535.93 627.041 519.54C629.063 516.111 630.786 514.415 634.644 513.355C640.372 512.66 655.523 512.089 661.104 513.122C670.486 514.859 670.763 525.567 675.648 532.201C679.201 537.026 684.107 540.157 690.073 540.931C696.817 541.805 704.226 540.623 709.622 536.278Q710.046 535.934 710.452 535.569Q710.858 535.204 711.245 534.819Q711.633 534.434 712 534.031Q712.368 533.627 712.716 533.206Q713.063 532.785 713.389 532.347Q713.715 531.909 714.019 531.456Q714.323 531.002 714.604 530.534Q714.885 530.066 715.142 529.584Q715.4 529.103 715.633 528.609Q715.866 528.115 716.075 527.611Q716.283 527.106 716.466 526.592Q716.649 526.077 716.807 525.555Q716.964 525.032 717.095 524.502Q717.226 523.972 717.331 523.436Q717.436 522.9 717.514 522.36Q717.592 521.82 717.643 521.276C718.203 514.965 717.181 506.96 712.788 502.151C706.147 494.88 696.165 495.459 687.283 494.972C684.341 494.811 680.712 494.303 678.715 491.86C675.139 487.486 677.625 469.842 678.299 463.705C678.836 458.819 680.045 456.138 683.882 453.092C687.525 452.892 691.183 452.717 694.789 452.134C702.16 450.944 709.462 447.939 713.831 441.564C716.329 437.918 717.389 432.543 716.379 428.206C715.38 423.92 711.383 419.135 707.768 416.871C702.514 413.58 694.264 413.121 688.271 414.498C678.349 416.777 676.832 424.125 672.1 431.519C670.351 434.251 667.846 435.932 664.694 436.636C659.812 437.726 638.671 437.794 634.797 435.171C632.6 433.684 631.493 431.35 631.15 428.772C630.742 425.704 631.192 422.543 631.562 419.493C632.822 409.114 635.834 401.847 642.294 393.534C652.81 379.999 669.739 373.273 686.316 371.191Z"/>
	<path fill="#0A5C9D" d="M687.431 378.208C704.45 376.816 723.895 382.314 737.158 393.196C746.3 400.698 752.716 412.34 753.732 424.161C754.995 438.843 749.109 451.088 739.445 461.714C736.027 465.471 732.222 468.857 728.953 472.75L728.56 473.226C733.007 477.375 738.591 480.2 743.099 484.337C752.159 492.65 756.867 503.605 757.362 515.822C757.952 530.377 753.538 545.22 743.545 556.026C730.911 569.689 714.141 574.825 695.956 575.377C678.458 575.907 662.313 570.417 649.573 558.235C638.591 547.734 634.301 536.126 634.016 521.14C642.586 520.134 651.735 520.733 660.375 520.735L661.337 521.034C663.216 522.802 663.9 527.042 664.966 529.477C668.001 536.408 673.748 543.234 680.998 545.945C689.909 549.278 701.164 548.843 709.729 544.686C716.287 541.503 721.302 535.949 723.546 528.981C726.015 521.313 725.945 510.258 722.222 503.048C716.722 492.398 705.334 488.441 694.111 487.822C691.777 487.694 687.677 488.02 685.696 487.022C684.693 486.516 684.498 486.013 684.235 484.965C683.069 480.334 684.522 464.112 686.854 460.268C691.886 458.664 697.985 459.379 703.249 458.295C709.861 456.935 716.533 452.444 720.156 446.802C724.082 440.687 725.032 432.52 723.269 425.516C721.702 419.289 717.477 414.092 711.987 410.836C704.592 406.449 694.902 405.518 686.661 407.725C674.461 410.993 670.756 419.266 665.065 429.22C659.199 429.688 645.663 430.069 640.064 429.026C639.011 428.118 638.792 427.421 638.614 426.032C637.362 416.268 641.918 405.073 648.023 397.652C657.66 385.937 672.599 379.639 687.431 378.208Z"/>
	<path fill="#CECDCD" d="M196.804 489.311C198.689 486.769 200.558 484.198 202.534 481.725C209.051 473.571 218.928 469.262 229.155 468.154C243.678 466.581 260.173 469.379 271.759 478.724C281.923 486.921 286.331 498.064 287.708 510.762C288.501 518.078 288.054 525.713 288.029 533.076L288.017 569.959L288.037 600.547C288.047 604.675 288.537 609.1 288.186 613.192C288.042 614.875 287.677 617.008 286.433 618.268C285.374 619.341 284.136 619.946 282.652 620.194C277.896 620.989 272.135 619.984 267.246 619.965C263.685 619.951 260.045 620.35 256.494 620.099C254.011 619.924 251.034 619.216 249.907 616.715C247.794 612.025 248.904 603.308 248.914 598.065L248.995 548.791C249.006 540.92 249.833 531.997 248.621 524.238C247.792 518.933 246.017 512.938 242.413 508.849C238.689 504.624 233.547 502.174 227.91 502.038C221.007 501.872 214.233 505.055 209.382 509.875C206.286 512.951 204.303 516.61 203.466 520.895C201.892 528.953 203.02 538.461 203.025 546.698L203.005 599.951C203.079 605.27 204.197 613.242 202.37 618.21C201.541 618.887 200.81 619.159 199.784 619.401C193.514 620.879 169.976 621.145 164.859 617.927C162.936 614.737 164.03 606.613 163.94 602.75C163.833 598.138 163.229 593.552 163.085 588.942C162.792 579.544 162.95 570.097 162.991 560.695C163.04 549.323 164.034 534.78 162.889 523.751C162.198 517.097 158.775 510.183 153.416 506.075C148.991 502.682 143.426 501.425 137.932 502.146C132.802 502.819 128.717 505.43 125.193 509.107C115.397 519.329 115.054 530.278 115.049 543.645L115.057 563.642L115.042 606.647C115.046 609.096 115.902 616.452 114.4 618.032C111.457 621.132 89.618 620.222 84.9486 620.134C82.3779 620.085 78.711 620.007 76.8353 618.054C75.2765 610.995 75.902 603.148 75.8999 595.94L75.9155 565.669C75.9372 534.718 75.2607 503.629 76.0323 472.696C84.0563 469.709 106.843 469.907 115.017 472.348C115.046 477.796 115.063 483.235 115.323 488.678Q116.039 487.581 116.767 486.492C124.483 474.97 132.556 470.745 145.954 468.108C150.737 467.726 155.941 467.71 160.711 468.113C178.085 469.583 185.95 476.598 196.804 489.311Z"/>
	<path fill="#CECDCD" d="M407.014 469.972C409.105 470.554 410.835 470.991 412.003 472.992C413.517 475.583 412.455 483.147 414.466 484.006C418.976 480.419 422.859 476.167 427.753 473.053C438.614 466.143 456.032 465.953 468.386 467.381C485.297 469.337 497.986 475.977 508.505 489.517C513.357 495.763 516.749 504.063 518.059 511.835C519.623 521.115 519.075 530.966 519.098 540.365L519.049 585.432C519.032 593.535 520.007 607.973 518.956 615.389C518.729 616.991 517.983 618.879 516.623 619.841C515.098 620.921 513.237 620.97 511.441 621.134L504.907 621.103C499.47 621.068 494.037 621.003 488.602 621.212Q487.462 621.189 486.325 621.111C482.909 620.854 481.097 619.556 478.9 617.022C477.043 611.332 477.924 603.584 477.94 597.598L478.066 552.321C478.082 544.449 479.166 534.696 477.35 527.103L476.903 524.619C476.387 522.74 475.611 520.941 474.893 519.132C472.503 513.612 469.495 510.537 464.657 507.071C463.342 505.882 462.328 505.291 460.674 504.666C459.642 504.078 459.396 504.136 458.19 504.181C456.501 503.255 454.851 502.49 453.044 501.82L451.938 501.733L451.079 501.096L444.096 501.051C437.778 501.704 431.132 503.518 426.757 508.399C426.616 508.556 426.495 508.731 426.364 508.896C424.909 510.269 423.465 511.838 421.83 512.986C417.398 516.759 414.954 523.378 413.881 528.976L413.872 529.523C412.221 534.572 412.696 606.545 413.12 616.003C412.499 617.477 412.068 618.433 410.521 619.161C407.517 620.575 403.97 619.487 400.981 620.748L397.714 621.107L385.596 621.101L381.925 621.12L379.516 620.871C377.627 620.231 375.828 619.225 374.04 618.344C373.752 612.403 373.902 606.372 373.882 600.421C374.281 592.747 373.955 584.896 373.961 577.205Q374.065 557.644 373.892 538.083C374.139 531.654 373.987 525.166 374.002 518.73C373.986 516.44 373.914 514.204 373.706 511.923C372.339 505.577 372.308 483.608 373.161 476.934C373.592 473.565 374.393 472.231 377.074 470.16L382.088 469.893C390.39 470.128 398.709 470.001 407.014 469.972Z"/>
	<path fill="#CECDCD" d="M913.011 467.162C916.095 466.62 919.686 466.835 922.835 466.805C938.14 466.658 954.508 468.685 967.323 477.778C972.834 481.688 978.616 487.748 981.405 493.966C982.256 495.863 982.689 497.931 983.4 499.88C984.193 502.057 985.57 504.154 985.816 506.496C985.964 507.913 985.679 508.502 984.859 509.609C979.258 512.131 955.734 512.071 948.435 512.032C944.676 505.41 941.995 499.677 934.238 497.192C927.442 495.015 916.401 495.196 910.153 498.662C904.739 501.666 903.637 506.281 902.108 511.849C903.019 515.37 903.862 518.98 906.657 521.545C917.897 531.859 956.958 523.958 978.083 545.113C985.915 552.955 989.322 564.057 989.195 574.983C989.055 587.099 984.933 598.033 976.178 606.48C963.308 618.896 947.633 623.436 929.986 623.073C915.796 623.231 904.078 622.782 890.833 617.069C879.613 612.23 868.126 602.37 863.592 590.787C862.373 587.673 859.048 580.27 860.327 577.267C864.23 575.049 881.972 574.726 887.451 574.074C890.011 573.77 895.181 572.661 897.55 573.709C900.747 575.122 904.64 586.662 909.213 589.912C915.024 594.04 925.459 594.53 932.28 593.58C938.201 592.755 945.082 590.62 948.686 585.545C951.081 582.171 951.939 576.695 951.07 572.66C950.1 568.162 945.453 564.311 941.366 562.682C936.864 560.887 931.768 560.376 927.012 559.595C911.99 557.13 894.732 555.921 881.898 547.118C873.377 541.273 866.88 532.992 865.234 522.61C863.411 511.109 864.54 497.954 871.734 488.448C882.61 474.076 895.861 469.636 913.011 467.162Z"/>
	<path fill="#CECDCD" d="M832.695 652.466C840.082 653.539 847.95 651.648 855.178 653.068C856.387 654.295 856.589 655.671 856.819 657.377C857.565 662.919 857.086 669.014 857.072 674.614C857.045 685.5 857.282 696.39 857.201 707.274C857.155 713.375 856.456 719.926 856.963 725.987C857.095 727.565 857.126 728.216 858.351 729.245C860.496 728.462 883.692 697.657 888.596 693.195C892.772 689.396 913.714 690.885 920.032 691.054C911.83 701.546 903.199 711.643 894.54 721.758C890.138 726.901 884.978 732.034 881.21 737.64C885.414 743.141 890.327 748.299 894.853 753.551C899.494 758.937 903.906 764.538 908.662 769.821C912.294 773.46 919.054 780.117 921.409 784.582C922.071 785.836 922.29 786.448 921.914 787.811C918.212 788.378 914.387 787.903 910.645 787.96C906.255 788.026 899.885 789.037 895.696 787.622C888.931 785.337 872.742 763.064 867.375 756.579C864.467 753.063 861.564 748.751 857.582 746.45C857.406 746.349 857.227 746.253 857.05 746.155C856.898 757.827 858.454 774.884 856.944 785.837Q856.475 786.082 855.998 786.312C849.762 789.285 837.579 789.075 831.153 786.747C830.52 760.923 831.043 734.958 831.004 709.12L830.964 676.683C830.96 670.411 830.69 663.984 831.148 657.73C831.296 655.702 831.729 654.251 832.695 652.466Z"/>
	<path fill="#CECDCD" d="M337.529 470.892C341.592 470.948 345.068 470.973 348.836 472.717L348.962 473.083C349.038 482.33 349.871 491.51 350 500.726C350.348 525.562 350.041 550.451 350.047 575.292C350.05 586.613 351.429 608.1 348.549 618.318C345.673 619.236 343.06 620.119 340.002 620.103C331.88 619.938 323.73 620.06 315.604 620.044C313.636 618.766 312.193 617.819 311.484 615.442C310.588 612.441 310.176 609.392 310.031 606.271C309.14 586.955 310.051 566.774 310.02 547.322C309.983 524.769 309.094 501.106 310.048 478.694C310.125 476.869 310.076 474.597 311.116 473.035C312.073 471.6 314.488 471.519 316.036 471.304L316.918 470.923C323.782 470.941 330.668 471.065 337.529 470.892Z"/>
	<path fill="#CECDCD" d="M532.903 708.311C545.112 695.698 554.199 689.083 572.636 688.709C586.127 688.436 598.64 692.48 608.368 701.995C613.154 706.675 617.716 712.668 618.311 719.533C618.372 720.24 618.511 720.871 618.664 721.562C618.881 722.541 618.915 723.039 618.524 724.003C618.206 724.282 617.947 724.649 617.57 724.84C615.955 725.655 598.134 725.412 595.239 725.208Q594.563 725.163 593.888 725.096C590.142 719.289 586.37 713.686 579.092 712.234C572.991 711.018 565.976 712.035 560.827 715.591C554.778 719.769 551.883 726.776 550.748 733.794C549.38 742.252 550.838 752.769 556.102 759.742C559.053 763.651 563.283 766.282 568.164 766.927C573.775 767.669 581.322 767.653 585.83 763.844C589.223 760.977 591.704 756.683 594.121 753.005C598.842 752.909 615.782 751.68 618.738 753.79C619.85 757.139 617.466 762.474 615.957 765.547C610.535 776.587 599.566 784.409 588.112 788.152C576.268 792.023 559.708 789.821 548.741 784.141C537.822 778.486 531.317 769.767 527.21 758.459C523.218 743.672 523.194 729.324 529.1 715.087L530.043 713.285L532.903 708.311Z"/>
	<path fill="#CECDCD" d="M771.869 688.719C782.221 688.874 793.736 691.348 802.018 697.868C808.86 703.255 816.19 712.681 816.927 721.698C817.032 722.984 817.197 723.82 816.348 724.814C809.344 726.341 799.062 725.184 791.67 725.085C789.476 720.642 786.671 716.125 782.04 713.909C776.934 711.465 769.197 711.211 763.932 713.027C757.97 715.083 753.364 720.101 750.791 725.752C746.961 734.167 747.513 744.628 750.92 753.102C753.149 758.646 756.99 763.576 762.681 765.811C767.819 767.829 776.159 767.939 781.167 765.551C786.463 763.025 789.303 758.222 791.235 752.934L806.946 752.99C809.601 752.951 813.647 752.468 816.052 753.558C816.745 753.873 817.011 754.659 817.134 755.378C817.926 760.041 810.947 770.673 807.775 774.225C799.006 784.043 786.337 789.248 773.223 789.93Q772.021 789.984 770.818 789.979Q769.615 789.974 768.413 789.911Q767.212 789.847 766.015 789.725Q764.818 789.603 763.628 789.423Q762.438 789.243 761.259 789.005Q760.079 788.768 758.913 788.473Q757.746 788.178 756.596 787.826Q755.445 787.475 754.313 787.068Q753.18 786.661 752.069 786.199Q750.958 785.737 749.871 785.222Q748.784 784.707 747.723 784.139Q746.662 783.571 745.63 782.953Q744.598 782.334 743.598 781.666Q742.597 780.998 741.63 780.282Q740.663 779.565 739.732 778.803Q738.802 778.041 737.909 777.234C727.571 767.846 722.627 754.419 722.055 740.594C721.552 728.433 725.364 713.127 733.888 704.05C743.612 693.697 757.948 689.137 771.869 688.719Z"/>
	<path fill="#CECDCD" d="M636.129 652.07C641.782 651.984 647.562 651.652 653.205 651.913C655.312 652.011 657.993 652.288 659.348 654.147C660.258 655.396 660.434 657.003 660.452 658.499C660.519 663.928 660.043 669.424 660.033 674.878L660.049 735.764L660.113 766.881C660.133 773.005 660.489 779.345 659.879 785.44C659.228 786.795 657.734 787.291 656.458 787.948Q650.637 788.11 644.815 788.196C641.587 788.225 636.782 788.388 634.404 785.827C633.139 784.466 633.145 779.955 633.06 778.022C632.285 760.476 633.007 742.595 633.027 725.017C633.052 703.128 632.497 681.115 633.03 659.241C633.112 655.896 633.724 654.406 636.129 652.07Z"/>
	<path fill="#CECDCD" d="M683.288 693.079C688.077 692.999 702.52 691.649 706.059 694.559C707.746 702.717 707.027 711.589 707.022 719.894L707.025 754.356C707.032 761.748 707.854 777.408 706.884 783.981C706.609 785.844 705.099 786.885 703.732 787.986C697.814 788.096 686.053 789.768 681.071 786.376C680.451 783.556 680.168 780.69 680.068 777.808C679.803 770.129 679.254 699.51 680.223 696.165C680.666 694.636 682.032 693.9 683.288 693.079Z"/>
	<path fill="#CECDCD" d="M315.716 448.106C313.913 446.845 312.305 445.511 310.909 443.796C306.774 438.717 305.248 432.096 305.883 425.659Q305.943 425.068 306.032 424.481Q306.12 423.894 306.239 423.312Q306.357 422.73 306.504 422.154Q306.651 421.579 306.826 421.011Q307.001 420.444 307.205 419.886Q307.408 419.328 307.639 418.781Q307.87 418.234 308.128 417.699Q308.386 417.164 308.671 416.642Q308.955 416.121 309.265 415.614Q309.575 415.108 309.91 414.617Q310.244 414.127 310.603 413.653Q310.962 413.18 311.344 412.725Q311.726 412.27 312.13 411.835Q312.534 411.4 312.959 410.985Q313.385 410.571 313.83 410.178Q314.276 409.785 314.74 409.415C320.088 405.167 327.066 404.012 333.713 404.902C339.545 405.683 345.328 408.81 348.988 413.448C349.412 414.305 349.779 415.093 350.324 415.879L350.68 416.649C353.567 423.028 354.206 430.935 351.631 437.561Q351.022 439.15 350.207 440.644L350.004 440.856L348.354 442.822L344.845 446.283L341.847 448.62L338.952 449.816C338.187 450.051 337.268 450.46 336.479 450.516L334.222 451.03L332.448 451.78C330.19 452.042 328.08 451.931 325.827 451.771C325.225 451.467 325.473 451.54 324.846 451.413C321.378 450.71 318.762 449.874 315.716 448.106Z"/>
	<path fill="#CECDCD" d="M497.031 759.394C498.181 759.257 498.826 759.128 499.965 759.371C501.125 759.665 502.25 759.957 503.435 760.137C504.646 760.735 505.873 761.31 507.059 761.954L508.452 762.925C511.363 766.33 512.574 770.748 512.314 775.223Q512.281 775.898 512.181 776.566Q512.08 777.234 511.914 777.888Q511.748 778.543 511.517 779.178Q511.286 779.812 510.993 780.421Q510.701 781.03 510.349 781.606Q509.997 782.183 509.589 782.721Q509.181 783.26 508.722 783.755Q508.262 784.25 507.756 784.697C506.242 786.02 504.446 787.081 502.695 788.057C500.227 788.092 497.715 788.041 495.252 788.176C493.046 788.003 491.64 787.396 489.702 786.336L489.34 786.22C485.921 782.839 484.85 780.118 483.187 775.651C483.079 774.103 483.195 772.561 483.271 771.013C483.508 770.251 483.741 769.495 484.037 768.754C485.672 764.661 488.1 762.248 492.135 760.533L493.488 760.289C494.684 760.047 495.853 759.711 497.031 759.394Z"/>
	<path fill="#CECDCD" d="M686.876 653.016C690.486 652.855 694.094 652.573 697.641 653.431C701.084 654.263 704.124 656.051 705.863 659.224C708.462 663.966 707.251 668.939 705.726 673.757C703.535 675.913 701.429 677.352 698.693 678.712C695.48 679.902 692.276 680.461 688.91 679.581Q688.284 679.419 687.676 679.197Q687.069 678.974 686.487 678.692Q685.904 678.41 685.353 678.072Q684.801 677.734 684.286 677.343Q683.771 676.952 683.296 676.512Q682.822 676.073 682.394 675.588Q681.965 675.103 681.587 674.578Q681.209 674.054 680.884 673.494C678.779 669.864 678.288 665.24 679.556 661.241C680.798 657.321 683.316 654.876 686.876 653.016Z"/>
</svg>
