<?xml version="1.0" encoding="utf-8" ?>
<svg xmlns="http://www.w3.org/2000/svg" xmlns:xlink="http://www.w3.org/1999/xlink" width="1024" height="1024">
	<path fill="#FEFEFE" d="M864.32 150.148C868.376 149.652 873.335 149.774 876.872 151.992C879.018 153.337 880.598 155.295 881.683 157.567C884.529 163.527 886.616 178.195 888.281 185.417C895.491 181.621 904.563 176.613 912.734 175.936C918.403 175.466 925.353 175.097 929.882 179.118C933.19 182.055 934.724 186.61 935.024 190.921C936.466 211.591 922.752 212.069 911.87 224.72C911.73 224.883 911.595 225.051 911.458 225.216C918.944 231.52 933.274 237.407 937.823 244.831C940.656 249.454 941.019 256.879 939.682 262.116C938.419 267.061 934.726 270.319 930.537 272.904C913.485 273.583 909.166 271.504 893.674 266.519C895.17 278.431 896.137 285.229 895.957 297.417C895.14 298.814 894.335 300.185 893.151 301.308C887.752 306.434 879.412 305.129 872.592 304.951C865.511 301.087 859.384 285.084 856.691 277.551C851.186 283.1 845.181 293.057 839.03 296.858C834.63 299.577 827.872 299.826 822.917 298.563C818.273 297.379 815.517 294.458 813.125 290.471C812.693 275.9 813.211 271.879 818.392 258.15C809.97 257.807 802.079 258.908 794.013 261.422C776.331 266.934 766.173 279.32 757.776 295.177C769.864 298.918 784.492 298.906 791.931 310.478C792.228 322.909 791.797 329.454 787.692 341.354C794.437 345.184 799.974 350.48 805.431 355.917C818.257 368.698 828.834 381.869 837.065 398.046C856.841 436.918 860.533 487.634 846.997 529.022C835.254 564.928 806.824 599.375 773.043 616.537C765.334 621.312 756.293 624.815 747.677 627.657C730.524 633.314 713.368 635.033 695.4 635.072C688.386 635.087 681.214 635.355 674.22 634.8C655.649 633.324 636.182 627.252 619.638 618.811C585.866 601.58 554.241 567.347 542.569 530.833Q541.915 528.764 541.312 526.679Q540.709 524.594 540.158 522.495Q539.606 520.396 539.105 518.284Q538.605 516.172 538.156 514.049Q537.707 511.925 537.311 509.792Q536.914 507.658 536.569 505.515Q536.225 503.372 535.933 501.222Q535.641 499.071 535.401 496.914Q535.161 494.757 534.975 492.595Q534.788 490.432 534.654 488.266Q534.52 486.1 534.439 483.931Q534.358 481.762 534.33 479.592Q534.302 477.422 534.327 475.252Q534.352 473.082 534.43 470.913Q534.508 468.744 534.638 466.578Q534.769 464.411 534.953 462.249Q535.137 460.086 535.373 457.929Q535.61 455.771 535.899 453.62Q536.188 451.469 536.53 449.326Q536.871 447.183 537.265 445.048Q537.659 442.914 538.104 440.79Q538.55 438.666 539.047 436.554Q539.545 434.441 540.094 432.341Q540.643 430.241 541.243 428.156Q541.843 426.07 542.493 424Q543.144 421.929 543.845 419.875Q544.546 417.821 545.297 415.785Q546.048 413.749 546.849 411.731Q547.649 409.714 548.499 407.717Q549.349 405.72 550.247 403.744Q551.145 401.768 552.091 399.815Q553.037 397.862 554.03 395.932C570.562 363.988 600.157 338.366 632.97 324.183C641.259 320.6 649.927 318.118 658.515 315.38C663 305.247 663.093 287.054 673.333 281.143C682.75 275.707 703.836 282.208 713.938 285.189C721.07 268.387 727.639 256.599 740.807 243.617C760.508 224.196 788.436 216.807 815.571 216.976C809.125 210.727 802.796 204.664 798.086 196.935C797.92 191.615 797.376 185.808 799.459 180.773C800.78 177.581 803.064 175.135 806.331 173.922C809.195 172.858 812.179 172.909 815.184 172.908C817.838 172.907 821.092 172.658 823.62 173.361C828.867 174.82 838.834 182.047 844.792 184.954C846.776 176.312 846.384 163.166 850.903 155.871C852.053 154.014 853.952 152.55 855.593 151.137C858.553 151.047 861.401 150.61 864.32 150.148Z"/>
	<path fill="#292929" d="M863.846 157.054C866.539 156.907 869.068 156.798 871.412 158.345C873.441 159.684 874.883 161.819 875.77 164.049C877.323 167.953 877.785 172.698 878.622 176.813Q880.687 186.509 882.9 196.171C893.705 193.715 905.364 183.738 915.782 182.715C918.823 182.416 921.802 183.139 924.11 185.208C926.369 187.233 927.92 190.339 927.981 193.386C928.167 202.81 916.312 209.869 909.873 215.27C906.687 217.943 903.815 220.866 900.938 223.86C903.556 228.294 906.456 231.988 910.552 235.166C917.577 240.617 929.526 244.081 932.994 253C933.723 254.875 933.881 256.92 933.035 258.785C930.997 263.281 926.081 265.711 921.738 267.407C914.944 265.646 893.485 256.622 887.251 258.77C886.286 259.923 885.939 260.477 885.842 262.002C885.362 269.509 889.239 282.374 889.466 291.296L889.482 292.041C889.023 292.837 888.562 293.633 888.003 294.364C886.493 296.342 883.034 299.068 880.46 299.138C870.812 299.398 866.501 272.986 859.422 267.399C852.394 265.201 839.71 286.572 833.999 290.568C832.62 291.533 830.619 291.972 829.012 292.437C827.145 291.751 825.118 291.109 823.438 290.03C810.782 281.903 829.627 263.155 827.178 253.132C826.455 252.267 826.223 251.78 825.076 251.518C822.896 251.021 820.145 251.313 817.901 251.282C803.466 251.079 788.199 252.983 775.852 261.06C765.046 268.13 757.403 277.612 751.935 289.253C750.67 291.946 749.11 295 748.605 297.949C747.426 304.835 778.1 304.153 784.053 313.705C788.17 320.31 781.008 337.269 779.086 344.759C795.947 357.398 809.935 370.184 821.673 387.863Q822.734 389.466 823.756 391.094Q824.778 392.722 825.76 394.375Q826.742 396.027 827.684 397.703Q828.626 399.379 829.527 401.077Q830.428 402.775 831.287 404.494Q832.147 406.213 832.964 407.953Q833.782 409.693 834.557 411.452Q835.333 413.211 836.065 414.988Q836.797 416.766 837.486 418.56Q838.175 420.355 838.821 422.165Q839.466 423.976 840.068 425.802Q840.669 427.628 841.226 429.467Q841.783 431.307 842.295 433.16Q842.807 435.013 843.274 436.877Q843.741 438.742 844.163 440.617Q844.585 442.493 844.961 444.378Q845.338 446.263 845.668 448.157Q845.999 450.05 846.283 451.952Q846.568 453.853 846.806 455.76Q847.044 457.668 847.236 459.58Q847.428 461.493 847.574 463.41Q847.72 465.326 847.819 467.246Q847.918 469.166 847.97 471.087Q848.023 473.009 848.029 474.931Q848.035 476.853 847.995 478.775Q847.954 480.697 847.867 482.617Q847.78 484.538 847.646 486.455Q847.513 488.373 847.332 490.287Q847.152 492.201 846.926 494.11Q846.7 496.018 846.427 497.921Q846.155 499.824 845.836 501.72Q845.517 503.616 845.153 505.503C836.476 548.242 813.107 580.827 777.051 604.78C759.671 615.478 741.659 622.723 721.533 626.325Q719.678 626.664 717.816 626.957Q715.954 627.251 714.085 627.498Q712.216 627.746 710.341 627.947Q708.467 628.148 706.588 628.304Q704.709 628.459 702.827 628.568Q700.945 628.677 699.061 628.74Q697.177 628.802 695.291 628.819Q693.406 628.835 691.521 628.805Q689.636 628.775 687.752 628.699Q685.868 628.622 683.987 628.499Q682.106 628.377 680.228 628.208Q678.351 628.039 676.478 627.824Q674.605 627.609 672.738 627.348Q670.87 627.087 669.01 626.78Q667.15 626.473 665.298 626.12Q663.446 625.768 661.603 625.37Q659.76 624.972 657.928 624.529Q656.096 624.085 654.275 623.597Q652.454 623.109 650.645 622.576Q648.837 622.044 647.042 621.466Q645.247 620.889 643.467 620.268Q641.687 619.647 639.923 618.983Q638.159 618.318 636.411 617.61Q634.664 616.902 632.934 616.152Q631.205 615.401 629.495 614.608Q627.784 613.815 626.094 612.981Q624.403 612.146 622.734 611.27Q621.065 610.394 619.417 609.477Q617.77 608.56 616.146 607.603Q614.521 606.646 612.921 605.649Q611.321 604.653 609.746 603.617Q608.17 602.581 606.621 601.507C574.668 579.023 550.419 542.987 543.682 504.303Q543.338 502.36 543.042 500.408Q542.747 498.457 542.5 496.499Q542.253 494.54 542.055 492.577Q541.857 490.613 541.708 488.645Q541.559 486.677 541.459 484.706Q541.359 482.735 541.308 480.762Q541.257 478.789 541.255 476.815Q541.253 474.841 541.301 472.868Q541.348 470.895 541.445 468.924Q541.541 466.953 541.687 464.984Q541.832 463.016 542.026 461.052Q542.221 459.088 542.464 457.129Q542.708 455.171 543 453.219Q543.292 451.267 543.632 449.323Q543.973 447.379 544.362 445.444Q544.75 443.509 545.187 441.584Q545.624 439.659 546.109 437.746Q546.594 435.833 547.126 433.932Q547.658 432.032 548.237 430.145Q548.817 428.258 549.443 426.387Q550.069 424.515 550.741 422.659Q551.414 420.804 552.133 418.966Q552.851 417.128 553.615 415.308Q554.379 413.488 555.188 411.688Q555.998 409.888 556.851 408.108Q557.705 406.329 558.603 404.571Q559.5 402.813 560.442 401.079Q561.383 399.344 562.367 397.633Q563.351 395.922 564.378 394.237Q565.404 392.551 566.472 390.891Q567.54 389.232 568.65 387.599Q569.759 385.966 570.908 384.362Q572.552 382.08 574.276 379.858Q576 377.635 577.801 375.475Q579.602 373.315 581.478 371.219Q583.355 369.124 585.304 367.096Q587.253 365.069 589.273 363.111Q591.292 361.154 593.38 359.269Q595.467 357.384 597.62 355.574Q599.773 353.764 601.988 352.031Q604.204 350.298 606.479 348.645Q608.754 346.991 611.086 345.419Q613.419 343.847 615.805 342.358Q618.191 340.869 620.629 339.466Q623.066 338.062 625.552 336.746Q628.037 335.429 630.567 334.202Q633.098 332.974 635.67 331.836Q638.242 330.698 640.853 329.652C648.539 326.495 656.599 323.616 664.809 322.227C667.981 313.497 669.101 303.791 672.7 295.299C674.946 289.999 677.685 287.623 682.842 285.515C692.445 286.859 708.824 293.392 717.002 293.363C718.378 293.358 719.021 293.074 719.796 291.882C722.079 288.364 723.354 283.669 725.054 279.82C729.559 269.615 735.961 259.763 743.911 251.912C767.497 228.617 793.597 223.436 825.741 223.582L828.716 220.668C826.674 217.729 824.634 214.779 822.223 212.126C816.026 205.306 808.964 199.69 804.481 191.447C804.816 189.53 805.228 187.486 806.043 185.712C807.987 181.479 811.885 180.138 815.932 178.617C816.056 178.66 816.18 178.702 816.303 178.747C816.508 178.822 816.711 178.904 816.917 178.977C821.637 180.669 825.845 183.822 830.169 186.337Q840 192.049 849.977 197.503C852.909 187.647 852.74 169.98 856.848 162.316C858.53 159.178 860.494 157.996 863.846 157.054Z"/>
	<path fill="#FEFEFE" d="M687.844 370.693C690.206 370.287 692.862 370.358 695.26 370.356C700.859 370.353 706.31 371.931 711.663 373.401C725.313 377.148 736.035 380.722 746.323 390.949C756.351 400.919 761.467 412.825 761.364 426.984C761.234 444.885 753.537 460.224 740.863 472.65C750.611 481 758.256 487.699 762.366 500.394C767.218 515.382 765.155 535.02 757.843 548.908C750.302 563.232 736.573 574.242 721.174 579.022C701.387 585.164 677.038 584.718 658.563 574.749C644.102 566.946 633.249 554.358 628.633 538.476C626.969 532.751 624.736 523.089 627.986 517.67C629.561 515.043 631.815 513.855 634.727 513.23C634.909 513.191 635.091 513.156 635.273 513.119C642.214 512.854 663.895 511.238 668.115 516.335C670.12 518.757 670.573 522.632 671.815 525.531Q672.511 527.134 673.404 528.636Q674.297 530.139 675.372 531.516Q676.447 532.894 677.688 534.124Q678.929 535.355 680.315 536.419C685.514 540.482 692.609 541.175 699.006 540.339C704.786 539.583 709.997 536.723 713.431 531.965C717.442 526.409 718.31 518.788 716.979 512.171C714.739 501.032 705.256 495.637 694.527 495.135C689.87 494.917 683.531 496.003 679.556 493.107C677.593 491.677 676.951 488.96 676.653 486.682C675.832 480.425 677.194 459.615 681.105 455.069C683.736 452.01 690.199 452.217 693.96 451.78C700.7 450.997 708.886 448.112 713.097 442.545C715.937 438.79 716.792 433.517 716.031 428.939C715.268 424.356 712.324 420.355 708.482 417.831C703.135 414.319 695.161 412.771 688.957 414.292C679.179 416.688 676.912 424.614 672.076 431.944C670.281 434.665 668.446 435.851 665.261 436.48C659.37 437.643 638.117 438.167 633.469 434.788C631.901 433.647 631.359 431.584 631.122 429.751C630.773 427.062 631.108 424.219 631.306 421.528C632.065 411.218 634.552 402.44 641.036 394.163C652.543 379.471 669.867 372.939 687.844 370.693Z"/>
	<path fill="#0A5C9D" d="M687.454 378.206C687.616 378.191 687.777 378.171 687.94 378.16C704.889 376.931 724.426 382.481 737.52 393.475C746.496 401.011 752.84 412.606 753.742 424.348C754.871 439.036 749.12 451.054 739.455 461.707C736.041 465.47 732.241 468.863 728.965 472.753L728.572 473.226C733.016 477.376 738.606 480.192 743.113 484.325C752.186 492.646 756.867 503.594 757.357 515.823C757.941 530.379 753.546 545.22 743.547 556.026C730.904 569.69 714.149 574.824 695.956 575.37C678.478 575.895 662.28 570.423 649.556 558.24C638.593 547.742 634.303 536.104 634.016 521.137C642.614 520.18 651.715 520.731 660.375 520.736C661.491 521.078 661.664 521.154 662.269 522.184C663.136 523.66 663.543 525.898 664.174 527.531C666.734 534.145 671.284 540.738 677.575 544.234C685.593 548.69 695.884 549.118 704.596 546.576C711.761 544.486 718.321 540.064 721.821 533.306C725.652 525.907 726.233 514.28 723.647 506.477C719.778 494.808 708.079 488.86 696.497 487.968C693.529 487.739 687.772 488.328 685.224 486.746C684.526 486.312 684.289 485.288 684.131 484.522C683.15 479.782 684.487 464.16 686.858 460.28C691.526 458.772 697.254 459.3 702.153 458.508C708.806 457.434 715.785 453.072 719.62 447.593C723.811 441.604 724.998 433.613 723.502 426.516C722.101 419.873 717.843 414.372 712.056 410.899C704.647 406.454 694.943 405.504 686.661 407.727C674.449 411.004 670.771 419.265 665.069 429.222C659.158 429.697 645.211 430.168 639.808 428.916C638.87 427.898 638.725 427.17 638.603 425.79C637.706 415.687 641.824 405.078 648.228 397.401C657.892 385.817 672.703 379.632 687.454 378.206Z"/>
	<path fill="#FEFEFE" d="M141.117 462.103C147.973 461.705 155.26 461.732 162.124 462.006C175.271 462.529 187.47 467.364 196.511 477.178Q198.679 474.817 200.929 472.535C209.753 463.712 221.048 461.976 232.993 461.952C251.28 461.914 266.804 463.105 280.428 476.822C286.177 482.61 290.207 489.58 292.129 497.521C295.6 511.868 294.042 534.465 294.02 549.643L294.069 615.023C294.056 617.898 294.435 621.348 292.1 623.448C287.078 627.964 257.579 626.041 249.608 625.95C246.864 624.419 244.905 622.64 243.026 620.12C242.784 599.26 242.968 578.364 242.984 557.5C242.991 547.962 243.837 537.706 242.716 528.252C242.296 524.711 241.052 521.362 239.556 518.149C236.6 511.805 233.487 510.416 227.113 508.11C222.594 509.499 217.604 511.829 214.175 515.146C211.392 517.839 210.136 521.715 209.477 525.452C208.04 533.593 208.97 542.95 208.975 551.263L209.023 602.25C209.019 607.313 210.265 617.189 208.505 621.694C207.948 623.119 207.16 623.707 205.813 624.313C199.584 627.114 168.778 627.109 162.323 624.605C159.913 623.67 158.91 622.757 158.289 620.169C157.006 614.827 157.995 607.705 158.001 602.139L158.038 556.06C158.041 547.865 158.521 539.351 157.745 531.196C157.383 527.393 156.602 523.312 154.993 519.832C152.177 513.742 146.957 510.181 140.851 507.976C139.403 508.625 137.886 509.246 136.516 510.055C130.706 513.486 125.633 519.411 123.311 525.75C119.357 536.543 120.982 556.137 120.996 567.86L120.99 605.519C120.99 610.234 121.988 616.699 120.766 621.171C120.388 622.557 119.679 623.335 118.412 623.981C116.394 625.009 113.961 625.548 111.728 625.823C105.371 626.605 78.5424 626.923 73.0565 625.004C71.9038 624.601 71.2496 624.194 70.788 623.011C68.9874 618.398 70.0746 509.397 69.9873 496.117C69.9447 489.651 68.9402 483.155 69.0882 476.719C69.1481 474.116 69.438 469.892 70.7195 467.626C72.0082 465.348 75.6607 464.607 77.995 464.288C85.3321 463.287 110.557 463.257 117.116 465.399C118.598 465.883 119.725 466.999 120.986 467.86C121.368 468.121 121.71 468.557 122.172 468.579C122.825 468.61 129.287 465.415 130.429 464.969C133.869 463.627 137.522 462.896 141.117 462.103Z"/>
	<path fill="#292929" d="M146.186 468.118C151.677 467.542 157.777 467.665 163.233 468.429C178.357 470.548 187.562 478.658 196.433 490.405C199.611 487.406 201.597 483.456 204.511 480.259C211.884 472.175 223.413 468.156 234.139 467.838C248.494 467.412 263.161 471.415 273.762 481.447C284.111 491.24 287.578 503.852 287.991 517.741C288.537 536.093 288.098 554.6 288.106 572.968C288.112 586.021 288.814 599.527 287.968 612.53C287.858 614.214 287.881 616.86 286.574 618.015C282.675 621.458 260.702 620.137 254.796 619.936C252.559 618.587 250.837 617.303 249.029 615.396C248.128 593.645 248.953 571.531 248.98 549.744C248.992 540.663 249.838 530.644 248.373 521.709C247.553 516.708 245.756 511.3 242.286 507.518C238.601 503.502 233.029 502.044 227.739 501.944C220.543 501.807 213.841 504.341 208.679 509.419C205.925 512.128 204.49 514.92 203.74 518.695C201.982 527.544 203.011 537.955 203.014 547.027L203.061 599.25C203.062 603.671 203.402 608.173 203.112 612.585C202.961 614.882 202.482 616.958 200.598 618.441C197.596 620.804 175.134 620.533 170.902 619.811C168.67 619.431 165.854 618.457 164.832 616.233C162.865 611.951 163.937 603.619 163.945 598.805L164.002 551.588C164.018 542.052 164.838 531.657 163.195 522.256C162.403 517.722 160.89 513.896 158.105 510.205C154.661 505.644 150.025 502.547 144.289 501.888C137.969 501.161 131.571 502.762 126.661 506.887C121.714 511.042 117.819 517.45 116.23 523.686C114.145 531.867 115.047 541.292 115.046 549.683L115.08 591.872C115.091 599.991 115.497 608.341 114.785 616.427C113.19 618.487 111.047 619.353 108.53 619.815C103.885 620.669 81.1625 620.782 77.7868 618.272C76.5444 617.348 76.3825 616.574 76.1723 615.102C75.341 609.281 75.8602 602.905 75.8593 597.001L75.8717 563.242L75.8855 508.116C75.8724 498.33 75.4561 488.401 75.8804 478.63C75.9617 476.755 75.9773 474.618 77.1675 473.082C82.4437 470.043 103.656 469.877 109.939 471.341C120.33 473.762 112.175 481.793 116.028 487.9C117.521 487.462 118.286 485.397 119.169 484.09C125.61 474.55 135.23 470.241 146.186 468.118Z"/>
	<path fill="#FEFEFE" d="M445.341 461.13C449.44 460.711 453.826 460.976 457.956 460.954C472.661 460.874 486.441 461.84 499.18 470.048C510.778 477.521 521.014 491.267 523.79 504.921C525.531 513.49 525.027 522.791 525.035 531.513L525.047 562.75L525.035 600.304C525.033 606.598 525.346 613.043 524.983 619.316C524.899 620.773 524.621 622.088 523.75 623.285C522.128 625.512 519.379 626.442 516.758 626.815C509.47 627.851 481.126 629.791 475.308 624.671C473.744 623.296 473.293 621.263 473.052 619.275C472.385 613.784 472.945 607.736 472.959 602.182L473.035 561.365C473.047 552.995 473.629 544.126 472.35 535.845C470.937 526.692 467.452 518.009 459.62 512.491C454.795 509.092 448.816 507.106 442.931 508.093C442.696 508.132 442.461 508.177 442.226 508.219C437.083 509.685 432.629 512.517 428.877 516.283C424.284 520.895 421.587 526.168 420.117 532.488C417.963 541.745 418.952 552.325 418.963 561.782C418.984 579.616 419.369 597.492 419.201 615.32C419.173 618.28 418.827 621.861 416.477 623.968C410.808 629.052 381.957 627.043 373.601 626.952C371.697 625.85 369.761 624.627 368.435 622.825Q367.912 622.117 367.609 621.291C366.555 618.454 367.995 594.106 368.006 588.239C368.042 568.208 368.497 548.028 367.932 528.014C367.8 523.339 367.166 518.694 367.047 514.02C366.823 505.139 366.994 496.227 366.975 487.342C366.963 481.87 366.45 475.879 367.432 470.485C367.793 468.501 368.148 466.854 369.966 465.727C371.677 464.666 373.881 464.234 375.858 464.036C380.381 463.581 409.735 463.505 412.914 464.331C416.218 465.19 417.625 467.223 419.256 470.063C427.345 464.595 435.862 462.686 445.341 461.13Z"/>
	<path fill="#292929" d="M450.802 467.181C459.972 465.845 471.538 467.054 480.367 469.805Q481.66 470.206 482.932 470.671Q484.203 471.136 485.451 471.662Q486.698 472.189 487.918 472.777Q489.137 473.364 490.327 474.012Q491.516 474.659 492.672 475.364Q493.828 476.069 494.947 476.83Q496.067 477.591 497.148 478.407Q498.229 479.222 499.268 480.09Q500.307 480.958 501.302 481.876Q502.297 482.794 503.246 483.76Q504.194 484.726 505.094 485.738Q505.994 486.749 506.843 487.804Q507.692 488.859 508.487 489.954Q509.283 491.05 510.024 492.183Q510.765 493.316 511.449 494.485Q512.133 495.653 512.758 496.854C516.244 503.57 518.027 510.637 518.767 518.139C519.444 524.998 519.105 532.122 519.039 539.008C518.951 548.243 519.124 557.518 518.918 566.744C518.804 571.867 518.306 576.971 518.269 582.098C518.217 589.369 520.439 610.095 518.584 615.62C517.927 617.577 516.813 619.014 514.905 619.876C510.38 621.922 487.513 621.785 482.818 619.864C480.88 619.07 479.853 617.961 479.365 615.917C478.16 610.865 479.089 603.945 479.081 598.675L479.034 558.391C479.057 549.894 479.547 541.062 478.632 532.615C478.18 528.438 477.273 524.247 475.729 520.333C472.766 512.82 467.149 506.9 459.701 503.738C450.662 499.901 441.157 500.341 432.143 503.936C430.817 504.317 429.458 505.274 428.307 506.054C409.369 518.906 412.88 541.779 412.991 561.725L412.99 600.345C412.994 604.16 414.007 612.37 412.964 615.679C412.514 617.106 411.147 618.21 409.851 618.883C404.253 621.788 383.484 621.95 377.697 619.795C376.613 619.392 374.902 618.517 374.513 617.366C372.929 612.674 373.972 532.558 373.975 519.381C373.979 506.02 373.515 492.601 373.81 479.249C373.854 477.239 373.827 474.637 374.742 472.832C375.495 471.348 378.545 470.619 380.036 470.321C384.604 469.408 407.932 468.89 411.288 471.989C413.963 474.459 413.063 481.863 413.012 485.318C416.59 483.139 419.399 480.235 422.657 477.649C430.943 471.072 440.471 468.458 450.802 467.181Z"/>
	<path fill="#FEFEFE" d="M912.363 460.143C912.454 460.131 912.544 460.113 912.636 460.107C932.287 458.733 957.561 459.729 973.61 472.435C982.714 479.643 990.673 490.471 991.941 502.31C992.297 505.636 992.952 512.867 990.842 515.446C982.184 519.041 971.69 517.769 962.552 518.168C956.546 518.43 950.733 519.134 944.692 519.036L944.016 518.412C938.859 513.714 937.709 506.171 930.318 503.743C925.566 502.183 919.24 502.7 914.827 505.066C912.754 506.178 911.068 507.78 910.49 510.125C909.868 512.644 910.895 513.983 912.214 516.036C918.703 519.165 925.892 520.14 932.943 521.147C950.903 523.709 970.548 525.912 984.02 539.375C992.505 547.853 996.056 560.53 996.048 572.312C996.045 577.372 994.701 581.721 993.716 586.623C991.453 597.885 991.243 603.286 982.676 611.705C967.987 626.14 949.772 630.214 929.75 630.016C909.106 630.119 892.058 629.316 874.594 616.82C863.441 608.839 855.139 595.595 853.074 581.998C852.649 579.199 852.138 574.114 854.365 571.905C857.898 568.399 883.741 567.429 889.441 567.087C903.84 566.223 902.943 566.223 909.954 578.058C911.144 580.067 912.43 582 914.239 583.512C918.313 586.916 924.781 587.498 929.869 586.798C934.212 586.201 939.946 583.606 942.531 579.953C943.616 578.42 944.054 576.834 943.64 574.96C943.099 572.515 940.445 570.747 938.331 569.781C927.987 565.056 907.397 564.412 895.031 561.278C888.199 559.547 881.674 556.938 875.916 552.816C867.268 546.627 859.954 536.847 858.35 526.139C857.774 522.292 857.91 518.322 857.902 514.444C857.882 503.462 858.384 492.833 865.21 483.638C877.981 466.434 892.346 463.007 912.363 460.143Z"/>
	<path fill="#292929" d="M921.357 466.747C936.405 466.549 951.104 468.242 964.234 476.124C976.893 483.724 982.68 494.948 986.107 508.929C977.605 511.735 969.225 510.964 960.45 511.333C957.121 511.473 953.184 512.126 949.892 511.704C946.381 511.253 944.635 504.357 942.448 501.836C939.141 498.024 933.921 496.412 929.015 496.141C921.321 495.717 912.347 495.36 906.34 501.104C903.393 503.922 902.126 508.608 902.255 512.593C902.416 517.539 905.163 521.289 909.546 523.446C914.924 526.092 921.537 526.808 927.421 527.658C944.621 530.145 964.822 532.173 977.795 545.041C985.443 552.627 988.888 563.19 988.922 573.84C988.96 585.922 985.305 597.27 976.634 605.879C960.656 621.743 940.926 623.332 919.595 623.259C911.793 623.028 904.325 621.467 896.923 619.031C883.372 614.571 871.488 605.943 865.066 592.946C863.512 589.799 859.232 580.812 860.356 577.489C864.844 574.434 889.623 574.571 897.003 573.165C897.16 573.135 897.318 573.102 897.475 573.07C900.437 578.301 903.318 584.422 907.654 588.638C912.38 593.234 919.385 594.001 925.678 593.984C933.242 593.963 942.18 592.729 947.61 586.924C950.682 583.639 951.926 579.222 951.574 574.777C951.163 569.578 947.797 565.474 943.192 563.236C938.739 561.07 933.376 560.549 928.524 559.76C910.788 556.875 890.997 555.506 876.981 542.961Q876.279 542.327 875.61 541.66Q874.94 540.992 874.305 540.292Q873.669 539.592 873.069 538.861Q872.469 538.13 871.906 537.37Q871.343 536.61 870.819 535.824Q870.294 535.037 869.809 534.225Q869.325 533.413 868.88 532.578Q868.437 531.744 868.035 530.888Q867.633 530.032 867.274 529.157Q866.915 528.282 866.599 527.391Q866.284 526.499 866.014 525.593Q865.743 524.687 865.518 523.769Q865.293 522.85 865.114 521.922Q864.934 520.993 864.801 520.057Q864.668 519.121 864.582 518.179Q864.496 517.238 864.456 516.293C863.903 504.357 867.292 492.891 875.574 484.049C887.574 471.238 904.435 467.371 921.357 466.747Z"/>
	<path fill="#FEFEFE" d="M828.82 646.051L851.109 645.882C853.523 645.876 859.149 645.428 860.858 647.314C865.785 652.753 864.049 700.199 864.062 709.676C871.759 701.614 877.775 690.088 887.38 684.17C894.263 683.664 919.381 682.867 924.825 685.272C926.966 687.697 926.045 693.382 925.956 696.429C923.623 700.539 919.932 704.498 916.877 708.108C908.552 717.944 898.945 727.574 891.737 738.222C902.849 749.23 912.547 761.965 922.884 773.723C924.334 775.807 926.241 777.575 928.005 779.393C928.076 783.366 928.713 788.159 927.69 791.968C923.797 795.621 896.117 794.027 889.595 793.952C889.483 793.885 889.37 793.82 889.26 793.751C889.076 793.635 888.895 793.514 888.712 793.398C882.686 789.562 867.037 770.367 864.135 763.526C863.904 769.987 865.608 784.973 863.056 790.158C862.202 791.894 860.769 793.138 858.904 793.669C854.719 794.86 829.158 794.526 825.696 792.52C823.994 781.463 824.971 769.186 824.976 757.979L824.973 696.831L824.989 663.738C824.994 659.656 824.464 654.731 825.061 650.725C825.42 648.316 826.984 647.402 828.82 646.051Z"/>
	<path fill="#292929" d="M833.33 652.512C838.761 652.306 849.972 651.556 854.957 653.115C856.395 655.022 856.754 657.29 857.018 659.622C857.659 665.279 857.192 671.366 857.196 677.085C857.202 687.246 857.382 697.408 857.311 707.569C857.257 715.234 856.765 723.047 857.299 730.69L857.363 731.55C865.414 722.381 872.554 712.346 880.364 702.946C882.999 699.775 885.579 696.294 888.616 693.503C889.789 692.425 891.047 691.544 892.616 691.17C898.804 689.697 913.283 690.507 920.039 690.83C913.728 699.162 906.789 707.075 900.037 715.054C893.75 722.482 887.578 730.087 880.833 737.108C883.531 741.622 887.79 745.73 891.249 749.711Q899.208 758.874 907.009 768.173C910.092 771.784 918.92 780.657 920.566 784.186C921.037 785.195 920.903 785.392 920.545 786.372C920.08 786.651 919.992 786.734 919.524 786.919C916.352 788.175 911.418 787.565 907.982 787.575C903.993 787.587 897.291 788.447 893.747 786.739C886.613 783.301 862.625 747.749 858.042 745.845L857.29 746.162C856.401 749.799 857.176 754.693 857.247 758.506C857.41 767.266 857.887 776.301 857.185 785.026L857.122 785.77C856.248 786.153 855.369 786.521 854.461 786.817C850.021 788.266 836.468 788.496 832.221 786.401C831.418 785.433 831.5 784.309 831.431 783.105C830.954 774.693 831.424 766.023 831.433 757.589L831.399 709.138L831.373 673.352C831.371 667.755 830.912 661.625 831.546 656.073C831.743 654.347 832.185 653.811 833.33 652.512Z"/>
	<path fill="#FEFEFE" d="M565.371 682.148C578.649 680.419 594.523 682.516 605.882 689.868C614.247 695.281 622.762 704.13 624.726 714.238C625.352 717.457 625.997 727.061 623.875 729.531C620.407 733.568 595.251 732.03 589.487 731.992C583.952 726.143 583.084 722.019 575.256 718.095C572.978 718.659 570.744 719.212 568.653 720.317C563.278 723.157 559.897 727.743 558.232 733.541Q558.065 734.112 557.926 734.69Q557.788 735.268 557.679 735.853Q557.569 736.437 557.49 737.026Q557.41 737.616 557.36 738.208Q557.31 738.801 557.29 739.395Q557.27 739.989 557.28 740.584Q557.29 741.178 557.33 741.772Q557.37 742.365 557.439 742.956Q557.509 743.546 557.608 744.132Q557.707 744.719 557.836 745.299Q557.964 745.88 558.122 746.453Q558.28 747.026 558.466 747.591Q558.652 748.156 558.867 748.711Q559.081 749.265 559.323 749.808Q559.565 750.351 559.834 750.882Q560.104 751.412 560.399 751.928C563.458 757.271 567.937 759.373 573.596 760.96C583.775 758.168 583.612 751.692 590.793 746.021C596.492 745.901 602.081 746.674 607.759 746.866C613.107 747.047 618.522 746.715 623.844 747.304C625.013 748.371 625.733 749.095 625.991 750.719C627.296 758.928 624.174 768.729 619.413 775.442C611.604 786.453 600.078 793.214 586.841 795.332C570.908 797.881 551.256 796.618 537.87 786.793C525.845 777.968 520.742 767.523 518.61 753C517.871 747.97 517.954 742.928 517.943 737.855C517.918 725.681 518.606 713.957 526.218 703.827C536.546 690.084 548.769 684.472 565.371 682.148Z"/>
	<path fill="#292929" d="M573.662 688.721C580.658 688.992 587.482 689.775 593.962 692.591C603.944 696.93 613 704.735 616.985 715.061C617.955 717.573 619.401 721.367 618.264 723.936C615.372 726.258 598.585 725.183 594.231 725.159C592.83 722.778 591.342 720.412 589.504 718.34C585.634 713.978 580.953 711.52 575.084 711.299C568.674 711.058 562.549 713.285 557.934 717.774C552.312 723.243 550.464 730.68 550.25 738.251C550.019 746.427 551.51 755.678 557.535 761.697C562.236 766.394 568.946 768.034 575.426 767.845C586.975 767.507 587.232 760.962 593.82 754.552C596.684 751.765 604.24 752.818 608.125 752.882C611.532 752.844 614.976 752.674 618.361 753.116C619.171 753.892 619.028 753.481 619.099 754.549C619.49 760.429 613.69 769.805 609.89 774.155C601.666 783.572 589.201 788.655 576.889 789.497C563.889 790.386 549.821 786.563 539.99 777.88C529.736 768.822 525.408 756.96 524.586 743.454C523.743 729.583 526.278 716.049 535.769 705.407C546.101 693.821 558.472 689.588 573.662 688.721Z"/>
	<path fill="#FEFEFE" d="M766.357 682.144C777.481 681.499 789.859 682.371 799.949 687.461C809.857 692.46 818.923 701.9 822.157 712.686C823.372 716.74 824.292 726.21 822.277 729.957C818.009 733.835 794.166 732.054 787.677 732.009C780.2 725.832 784.185 723.435 772.142 718.053C770.426 718.614 768.713 719.236 767.073 719.991C762.17 722.247 758.338 726.785 756.552 731.834C754.435 737.819 755.123 744.732 757.872 750.415C760.903 756.683 765.773 758.709 771.929 760.898C780.761 758.253 779.457 755.45 784.467 749.439C786.2 747.36 788.4 747.073 790.974 746.963C797.044 746.704 816.132 746.091 821.279 747.431C822.422 747.728 823.184 748.502 824.021 749.288C824.391 758.761 822.807 767.458 817.345 775.414C809.773 786.44 798.325 793 785.28 795.249C769.673 797.94 750.505 796.612 737.332 787.15C725.744 778.828 718.708 766.885 716.52 752.851C714.281 738.494 715.667 715.126 724.524 703.143C735.835 687.84 748.605 684.674 766.357 682.144Z"/>
	<path fill="#292929" d="M767.337 689.176C776.758 687.619 788.46 690.215 796.734 694.871C805.514 699.813 814.053 709.203 816.579 719.156C817.07 721.089 817.091 722.442 815.985 724.187C813.256 726.27 796.177 725.156 791.824 725.116C789.775 720.571 787.046 716.749 782.715 714.112C777.723 711.073 771.547 710.408 765.941 711.928Q765.367 712.087 764.802 712.275Q764.237 712.463 763.683 712.679Q763.128 712.896 762.585 713.14Q762.042 713.384 761.513 713.656Q760.983 713.927 760.467 714.225Q759.952 714.523 759.453 714.847Q758.953 715.171 758.471 715.52Q757.988 715.869 757.524 716.242Q757.06 716.614 756.615 717.01Q756.171 717.406 755.747 717.824Q755.323 718.242 754.921 718.681Q754.519 719.12 754.139 719.579Q753.76 720.038 753.404 720.515Q753.049 720.993 752.718 721.488Q752.387 721.983 752.082 722.494Q751.777 723.005 751.498 723.531C747.185 731.548 747.43 743.312 750.152 751.822C752.058 757.782 756.012 762.881 761.699 765.649C766.956 768.207 774.372 768.62 779.858 766.482C786.085 764.055 789.039 758.816 791.565 753.041C794.621 752.927 797.691 752.937 800.75 752.895C804.997 752.826 810.085 752.267 814.236 753.063C815.661 753.336 816.015 753.61 816.772 754.814C817.425 759.569 813.567 766.334 810.901 770.158C803.688 780.504 792.45 786.718 780.135 788.84C767.053 791.095 753.146 788.286 742.32 780.509C731.244 772.551 725.182 761.115 723.144 747.751C721.148 734.663 723.38 718.663 731.394 707.819C740.258 695.826 753.151 691.278 767.337 689.176Z"/>
	<path fill="#FEFEFE" d="M313.255 465.089C320.898 464.661 345.548 463.944 351.745 466.362C352.906 466.815 353.957 467.158 354.366 468.404C356.046 473.522 355.048 502.62 355.048 509.444L354.947 600.124C354.9 605.841 355.578 611.73 355.242 617.405C355.136 619.2 354.701 621.044 353.72 622.574C352.226 624.904 349.632 625.382 347.122 625.914C339.479 626.305 320.966 626.822 313.901 625.873C311.437 625.542 309.199 624.947 307.099 623.591C306.138 622.97 305.865 621.007 305.657 619.97C304.125 612.35 304.97 603.482 304.967 595.704L304.969 551.31L305.08 491.341C305.113 485.391 304.32 479.187 304.623 473.298C304.721 471.397 305.104 469.401 306.246 467.829C307.852 465.618 310.768 465.531 313.255 465.089Z"/>
	<path fill="#292929" d="M318.053 471.154C326.844 470.087 341.049 469.996 349.057 473.49L349.037 576.781C349.047 584.163 350.024 610.737 348.651 616.564C346.954 618.828 344.779 619.308 342.125 619.959C335.404 620.336 319.167 621.445 313.624 618.495C312.55 617.924 312.053 617.487 311.762 616.264C310.094 609.244 310.958 600.663 310.954 593.44L310.952 555.76L311.074 492.352C311.111 487.635 310.485 482.842 310.642 478.171C310.697 476.538 311.023 474.635 312.005 473.283C313.318 471.476 316.007 471.449 318.053 471.154Z"/>
	<path fill="#FEFEFE" d="M632.868 646.109C641.463 645.958 650.702 645.201 659.213 646.073C661.726 646.331 663.745 646.729 665.3 648.911C666.801 651.017 665.929 747.198 666.046 758.488C666.102 763.83 666.883 769.161 666.816 774.49C666.756 779.144 666.911 785.766 665.528 790.214C664.906 792.217 663.459 792.841 661.739 793.741C660.987 793.843 660.261 793.938 659.502 793.972C652.751 794.269 633.295 795.571 628.782 791.36C626.861 784.778 627.959 771.778 627.962 764.398L627.977 720.439L628.066 665.769C628.082 661.722 627.69 657.624 627.778 653.6C627.803 652.417 627.913 650.931 628.381 649.826C629.307 647.638 630.83 647.044 632.868 646.109Z"/>
	<path fill="#292929" d="M636.885 652.526C642.073 652.387 647.446 651.985 652.621 652.327C654.754 652.468 657.826 652.714 659.237 654.56C660.142 655.743 660.062 658.978 660.095 660.521C660.726 689.566 660.031 718.762 660.082 747.823C660.095 754.885 661.182 778.514 660.002 783.96C659.708 785.318 658.202 786 657.158 786.768C656.062 787.145 655.058 787.35 653.9 787.453C649.108 787.877 638.473 788.864 634.769 785.772C633.826 774.28 634.402 762.373 634.426 750.836L634.431 694.776Q634.501 682.672 634.354 670.568C634.301 665.723 633.76 660.236 634.552 655.479C634.836 653.774 635.583 653.466 636.885 652.526Z"/>
	<path fill="#FEFEFE" d="M678.923 687.069C686.262 686.814 707.097 685.486 712.312 689.49C713.718 697.407 713.392 787.874 712.671 789.574C711.883 791.433 709.348 792.782 707.718 793.745C700.956 794.99 686.333 794.042 678.824 794.018C676.96 792.511 675.498 791.019 674.028 789.126C673.847 777.765 673.211 693.881 674.34 690.56C674.972 688.702 677.323 687.846 678.923 687.069Z"/>
	<path fill="#292929" d="M684.052 693.587C689.043 693.442 702.472 691.823 705.903 695.349C706.908 696.381 706.83 776.711 706.421 784.421C705.633 785.931 704.141 786.56 702.722 787.384C702.334 787.418 701.946 787.44 701.557 787.454C695.978 787.652 685.698 789.288 681.332 785.231C680.579 783.533 680.402 781.852 680.341 780.011C679.817 764.177 680.502 748.108 680.454 732.245C680.42 721.149 679.4 706.685 680.66 695.86C681.601 694.535 682.603 694.281 684.052 693.587Z"/>
	<path fill="#FEFEFE" d="M324.345 398.115C333.205 397.367 342.694 398.255 349.948 403.897C355.073 407.884 358.095 413.657 358.953 420.049C360.139 428.884 359.952 439.989 354.22 447.245C349.783 452.862 343.72 456.285 336.625 457.014C328.369 457.081 318.438 458.688 311.212 454.063C305.465 450.385 301.558 444.023 300.302 437.377C298.644 428.595 299.023 416.271 304.315 408.835C309.525 401.514 315.963 399.559 324.345 398.115Z"/>
	<path fill="#292929" d="M324.78 404.994Q325.348 404.878 325.922 404.791Q326.495 404.704 327.072 404.645Q327.649 404.586 328.229 404.555Q328.808 404.524 329.388 404.522Q329.968 404.52 330.547 404.547Q331.127 404.574 331.704 404.629Q332.281 404.684 332.855 404.767Q333.429 404.851 333.998 404.963Q334.568 405.074 335.131 405.214Q335.694 405.354 336.249 405.521Q336.804 405.688 337.351 405.883Q337.897 406.077 338.434 406.298Q338.97 406.519 339.495 406.766Q340.019 407.013 340.531 407.286Q341.043 407.559 341.541 407.857Q342.039 408.154 342.521 408.476Q343.004 408.798 343.47 409.143Q343.936 409.489 344.384 409.856Q344.833 410.224 345.263 410.614Q345.693 411.003 346.103 411.413Q346.513 411.823 346.902 412.253Q347.292 412.683 347.659 413.132Q348.027 413.58 348.372 414.046Q348.717 414.512 349.039 414.995Q349.361 415.478 349.659 415.975Q349.956 416.473 350.229 416.985Q350.502 417.497 350.749 418.022Q350.996 418.547 351.217 419.083Q351.438 419.619 351.633 420.166Q351.827 420.712 351.994 421.268Q352.161 421.823 352.301 422.386Q352.44 422.949 352.552 423.518Q352.664 424.087 352.747 424.661Q352.831 425.235 352.886 425.813Q352.941 426.39 352.967 426.969Q352.994 427.549 352.992 428.129Q352.99 428.709 352.959 429.288Q352.929 429.867 352.87 430.444Q352.81 431.021 352.723 431.595Q352.635 432.168 352.52 432.736Q352.404 433.305 352.261 433.867Q352.117 434.429 351.946 434.983Q351.775 435.537 351.577 436.082Q351.379 436.627 351.154 437.162Q350.93 437.697 350.679 438.22Q350.428 438.743 350.152 439.253Q349.875 439.763 349.574 440.259Q349.273 440.754 348.948 441.235Q348.623 441.715 348.274 442.179Q347.926 442.642 347.555 443.088Q347.184 443.534 346.792 443.961Q346.4 444.389 345.987 444.796Q345.574 445.203 345.141 445.59Q344.709 445.976 344.258 446.341Q343.807 446.705 343.338 447.047Q342.87 447.389 342.385 447.708Q341.9 448.026 341.4 448.321Q340.9 448.615 340.387 448.884Q339.873 449.153 339.346 449.397Q338.82 449.64 338.282 449.858Q337.745 450.075 337.197 450.266Q336.649 450.456 336.092 450.619Q335.536 450.783 334.972 450.919Q334.408 451.054 333.838 451.162Q333.273 451.269 332.704 451.348Q332.134 451.427 331.561 451.478Q330.989 451.529 330.414 451.552Q329.84 451.576 329.265 451.571Q328.69 451.566 328.116 451.533Q327.542 451.5 326.97 451.439Q326.398 451.378 325.83 451.289Q325.262 451.2 324.699 451.083Q324.136 450.967 323.579 450.823Q323.023 450.679 322.474 450.508Q321.925 450.337 321.385 450.139Q320.845 449.942 320.315 449.718Q319.785 449.494 319.267 449.245Q318.749 448.996 318.244 448.722Q317.739 448.447 317.247 448.148Q316.756 447.85 316.28 447.528Q315.804 447.205 315.344 446.86Q314.884 446.515 314.442 446.148Q313.999 445.78 313.575 445.392Q313.151 445.003 312.747 444.595Q312.343 444.186 311.959 443.758Q311.575 443.33 311.212 442.884Q310.849 442.438 310.509 441.974Q310.168 441.511 309.851 441.032Q309.534 440.552 309.24 440.058Q308.947 439.563 308.678 439.055Q308.408 438.547 308.165 438.026Q307.921 437.506 307.702 436.974Q307.484 436.442 307.292 435.9Q307.1 435.358 306.935 434.807Q306.77 434.256 306.632 433.698Q306.494 433.14 306.383 432.576Q306.272 432.012 306.189 431.443Q306.106 430.874 306.051 430.302Q305.996 429.729 305.969 429.155Q305.942 428.581 305.943 428.006Q305.944 427.431 305.973 426.856Q306.002 426.282 306.059 425.71Q306.116 425.138 306.201 424.569Q306.286 424.001 306.399 423.437Q306.512 422.873 306.652 422.315Q306.792 421.758 306.959 421.208Q307.126 420.657 307.32 420.116Q307.514 419.575 307.734 419.044Q307.954 418.512 308.2 417.993Q308.445 417.473 308.716 416.966Q308.987 416.458 309.282 415.965Q309.578 415.472 309.897 414.993Q310.216 414.515 310.558 414.053Q310.9 413.591 311.264 413.146Q311.628 412.701 312.014 412.274Q312.399 411.848 312.805 411.44Q313.211 411.033 313.636 410.646Q314.062 410.259 314.505 409.894Q314.949 409.528 315.41 409.184Q315.871 408.841 316.348 408.52Q316.826 408.199 317.318 407.902Q317.81 407.606 318.317 407.333Q318.823 407.06 319.342 406.813Q319.861 406.565 320.391 406.344Q320.922 406.122 321.462 405.926Q322.003 405.73 322.553 405.561Q323.102 405.392 323.659 405.25Q324.217 405.109 324.78 404.994Z"/>
	<path fill="#FEFEFE" d="M489.674 753.07C495.085 752.944 502.017 752.059 507.236 753.473C511.282 754.57 514.887 757.481 516.928 761.124C519.989 766.586 520.169 776.663 518.217 782.587C516.255 788.537 511.716 792.21 506.305 794.902C500.023 795.294 491.731 795.982 485.935 793.303Q485.217 792.977 484.538 792.577Q483.858 792.178 483.224 791.71Q482.59 791.241 482.008 790.709Q481.426 790.178 480.903 789.588Q480.38 788.998 479.922 788.357Q479.463 787.716 479.074 787.031Q478.685 786.345 478.37 785.623Q478.054 784.9 477.816 784.149C475.942 778.327 476.05 766.894 478.885 761.357C481.084 757.06 485.156 754.43 489.674 753.07Z"/>
	<path fill="#292929" d="M497.738 759.282Q498.086 759.276 498.435 759.288Q498.783 759.299 499.131 759.327Q499.478 759.355 499.824 759.399Q500.169 759.444 500.512 759.505Q500.856 759.566 501.195 759.643Q501.535 759.721 501.871 759.815Q502.207 759.908 502.537 760.018Q502.868 760.127 503.193 760.253Q503.519 760.378 503.837 760.519Q504.156 760.66 504.468 760.816Q504.78 760.972 505.083 761.142Q505.387 761.313 505.683 761.498Q505.978 761.683 506.264 761.882Q506.55 762.081 506.826 762.293Q507.103 762.506 507.368 762.731Q507.634 762.957 507.889 763.195Q508.143 763.433 508.386 763.683Q508.629 763.933 508.86 764.194Q509.091 764.455 509.309 764.727Q509.526 764.999 509.731 765.281Q509.936 765.564 510.126 765.855Q510.317 766.147 510.494 766.447Q510.671 766.748 510.833 767.056Q510.995 767.365 511.142 767.681Q511.289 767.997 511.421 768.319Q511.552 768.642 511.668 768.971Q511.784 769.299 511.885 769.633Q511.985 769.967 512.069 770.305Q512.153 770.643 512.221 770.985Q512.289 771.327 512.34 771.672Q512.391 772.016 512.426 772.363Q512.461 772.71 512.479 773.058Q512.497 773.406 512.498 773.755Q512.5 774.103 512.484 774.451Q512.469 774.799 512.437 775.146Q512.405 775.493 512.357 775.839Q512.308 776.184 512.243 776.526Q512.178 776.868 512.096 777.207Q512.015 777.546 511.917 777.881Q511.82 778.215 511.706 778.545Q511.593 778.874 511.464 779.198Q511.335 779.522 511.19 779.839Q511.045 780.156 510.886 780.466Q510.726 780.776 510.552 781.077Q510.378 781.379 510.189 781.672Q510.001 781.965 509.798 782.249Q509.596 782.533 509.38 782.807Q509.165 783.081 508.936 783.344Q508.708 783.607 508.467 783.859Q508.226 784.11 507.973 784.35Q507.72 784.59 507.456 784.818Q507.192 785.045 506.918 785.26Q506.643 785.475 506.359 785.676Q506.074 785.877 505.78 786.065Q505.487 786.252 505.184 786.425Q504.882 786.598 504.571 786.757Q504.261 786.915 503.943 787.058Q503.625 787.202 503.301 787.33Q502.977 787.458 502.647 787.57Q502.317 787.682 501.982 787.778Q501.647 787.875 501.308 787.955Q500.969 788.035 500.626 788.099Q500.284 788.163 499.938 788.21Q499.593 788.257 499.246 788.288Q498.761 788.331 498.275 788.341Q497.788 788.351 497.302 788.329Q496.816 788.307 496.332 788.252Q495.848 788.197 495.37 788.11Q494.891 788.024 494.419 787.905Q493.947 787.786 493.484 787.636Q493.021 787.486 492.569 787.305Q492.117 787.124 491.678 786.914Q491.239 786.703 490.816 786.463Q490.392 786.224 489.985 785.957Q489.579 785.689 489.191 785.395Q488.803 785.102 488.435 784.782Q488.068 784.463 487.723 784.12Q487.377 783.777 487.056 783.412Q486.734 783.046 486.438 782.66Q486.142 782.274 485.872 781.869Q485.602 781.464 485.36 781.042Q485.118 780.62 484.905 780.182Q484.691 779.745 484.508 779.294Q484.324 778.843 484.171 778.381Q484.018 777.919 483.896 777.448Q483.774 776.977 483.684 776.498Q483.595 776.02 483.537 775.537Q483.479 775.053 483.454 774.567Q483.428 774.081 483.436 773.595Q483.443 773.108 483.483 772.623Q483.523 772.138 483.595 771.656Q483.667 771.175 483.771 770.7Q483.875 770.224 484.011 769.757Q484.147 769.29 484.314 768.832Q484.481 768.375 484.678 767.93Q484.875 767.485 485.101 767.054Q485.327 766.623 485.582 766.208Q485.837 765.794 486.119 765.397Q486.401 765 486.708 764.623Q487.016 764.246 487.348 763.89Q487.681 763.535 488.036 763.202Q488.392 762.87 488.768 762.561Q489.145 762.253 489.542 761.971Q489.939 761.689 490.353 761.434Q490.768 761.179 491.198 760.952Q491.629 760.726 492.074 760.528Q492.519 760.331 492.976 760.164Q493.433 759.997 493.901 759.86Q494.368 759.724 494.843 759.62Q495.319 759.515 495.8 759.443Q496.281 759.37 496.766 759.33Q497.251 759.29 497.738 759.282Z"/>
	<path fill="#FEFEFE" d="M684.677 646.071C690.171 645.888 696.146 645.519 701.5 646.889C705.775 647.984 709.78 650.235 711.991 654.183C714.905 659.387 714.964 669.699 713.107 675.33C711.248 680.968 706.607 683.281 701.652 685.741C696.293 686.948 689.182 686.062 683.656 685.977C679.156 683.427 675.147 680.83 673.581 675.591C671.857 669.825 671.954 658.859 674.905 653.538C677.148 649.496 680.331 647.369 684.677 646.071Z"/>
	<path fill="#292929" d="M689.37 652.69C691.748 652.664 694.121 652.67 696.448 653.228C700.333 654.162 703.915 656.409 705.915 659.938Q706.226 660.49 706.48 661.071Q706.733 661.651 706.925 662.255Q707.118 662.859 707.247 663.479Q707.377 664.099 707.443 664.729Q707.508 665.359 707.509 665.993Q707.51 666.626 707.446 667.257Q707.382 667.887 707.253 668.507Q707.125 669.128 706.934 669.732C705.269 674.976 701.428 677.055 696.867 679.382L696.281 679.457C692.902 679.915 690.263 680.032 687.107 678.542C683.841 677 681.277 674.289 680.14 670.838C678.872 666.993 679.266 662.087 681.312 658.569C683.12 655.459 685.952 653.595 689.37 652.69Z"/>
	<path fill="#FEFEFE" d="M1024 130.452L1024 847.192C1023.58 846.538 1023.26 846.039 1023.14 845.247C1022.55 841.376 1022.98 836.854 1022.98 832.908L1022.98 805.783L1022.98 709.515L1022.99 368.505L1022.98 210.951L1022.98 159.456C1022.98 150.79 1022.55 141.887 1023.06 133.245C1023.13 132.065 1023.24 131.41 1024 130.452Z"/>
	<path fill="#FEFEFE" d="M0 434.471C0.45363 435.153 0.808514 435.697 0.886365 436.533C1.2505 440.442 0.7901 444.789 0.808302 448.748L0.836926 482.862L0.851453 596.896L0.853349 633.741C0.85421 640.123 0.455014 646.791 0.989838 653.133L0 653.459L0 434.471Z"/>
	<path fill="#FEFEFE" d="M0 653.459L0.989838 653.133L1.04923 759.361L1.04882 794.376C1.04805 800.457 1.33383 806.702 0.948775 812.766C0.8823 813.813 0.683877 814.653 0 815.475L0 653.459Z"/>
</svg>
