<?xml version="1.0" encoding="utf-8" ?>
<svg xmlns="http://www.w3.org/2000/svg" xmlns:xlink="http://www.w3.org/1999/xlink" width="1024" height="1024">
	<path fill="#292929" d="M863.948 157.124C866.577 156.768 868.711 157.199 871.256 157.751C872.433 158.786 874.009 159.996 874.76 161.387C877.154 165.826 880.103 182.54 881.255 188.079C881.663 190.046 881.714 192.812 882.579 194.579C882.815 195.063 883.531 195.439 884.062 195.505C891.178 196.392 910.329 179.558 920.649 183.188C923.603 184.227 925.789 186.336 927.066 189.178C934.136 204.919 904.699 214.214 901.965 223.206C899.68 230.723 922.167 241.855 926.73 245.303C929.104 247.097 931.431 249.427 932.726 252.14C933.683 254.145 934.061 256.404 933.203 258.512C931.378 263 926.381 265.633 922.175 267.426C915.867 265.929 892.23 256.541 887.332 258.716C886.525 259.609 886.17 260.297 886.064 261.515C885.408 269.086 889.169 283.154 889.427 292.295C888.256 294.254 886.92 296.206 884.917 297.394C882.951 298.561 880.589 298.605 878.418 298.051C870.043 295.913 866.543 277.781 862.416 270.961C861.483 269.417 860.156 267.909 858.244 267.717C851.556 267.046 839.498 285.741 834.591 290.522L834.003 291.088C832.18 291.473 830.377 291.988 828.574 292.46C824.039 290.58 821.656 289.622 818.976 285.35C818.882 275.765 823.983 267.255 826.424 258.138C826.943 256.198 827.54 254.007 826.515 252.194C819.111 249.54 807.776 251.275 800.157 252.418C783.923 254.854 769.711 262.609 759.94 275.988C757.117 279.853 747.59 295.296 748.68 299.546C748.888 300.357 749.992 301.112 750.718 301.45C758.804 305.219 770.634 304.682 779.045 309.366C783.455 311.822 784.918 314.706 786.297 319.317C783.902 327.862 781.339 336.398 779.336 345.044C795.909 355.659 811.284 371.715 822.04 388.085Q823.113 389.724 824.145 391.389Q825.177 393.054 826.169 394.743Q827.16 396.433 828.109 398.146Q829.059 399.86 829.966 401.596Q830.873 403.332 831.737 405.09Q832.601 406.848 833.422 408.626Q834.243 410.405 835.02 412.203Q835.797 414.001 836.53 415.818Q837.262 417.635 837.95 419.469Q838.638 421.303 839.281 423.153Q839.924 425.004 840.521 426.869Q841.118 428.735 841.669 430.615Q842.22 432.494 842.725 434.387Q843.23 436.28 843.689 438.184Q844.147 440.089 844.558 442.004Q844.97 443.919 845.334 445.844Q845.699 447.768 846.016 449.701Q846.333 451.634 846.603 453.575Q846.872 455.515 847.094 457.461Q847.316 459.407 847.49 461.358Q847.665 463.309 847.791 465.264Q847.917 467.219 847.995 469.176Q848.073 471.134 848.104 473.092Q848.134 475.051 848.116 477.01Q848.098 478.968 848.032 480.926Q847.967 482.884 847.853 484.84Q847.739 486.795 847.577 488.747Q847.415 490.699 847.206 492.647Q846.996 494.595 846.739 496.537Q846.482 498.478 846.177 500.413Q845.872 502.348 845.52 504.275Q845.167 506.202 844.768 508.12C836.34 548.345 812.141 581.829 777.949 604.179C757.759 618.268 732.09 626.039 707.718 628.223Q705.841 628.393 703.961 628.517Q702.081 628.64 700.198 628.718Q698.315 628.795 696.431 628.826Q694.547 628.857 692.663 628.842Q690.778 628.826 688.895 628.765Q687.012 628.703 685.131 628.595Q683.249 628.487 681.371 628.333Q679.493 628.179 677.62 627.978Q675.746 627.778 673.878 627.531Q672.01 627.285 670.148 626.993Q668.287 626.7 666.433 626.362Q664.579 626.024 662.734 625.641Q660.889 625.257 659.054 624.828Q657.219 624.399 655.396 623.925Q653.572 623.452 651.76 622.933Q649.949 622.414 648.15 621.851Q646.352 621.288 644.568 620.681Q642.784 620.074 641.016 619.424Q639.248 618.773 637.496 618.079Q635.744 617.385 634.01 616.648Q632.275 615.911 630.56 615.131Q628.844 614.352 627.148 613.53Q625.452 612.709 623.777 611.846Q622.102 610.983 620.448 610.079Q618.795 609.176 617.164 608.231Q615.534 607.287 613.927 606.303Q612.32 605.319 610.737 604.296Q609.155 603.272 607.599 602.211Q606.042 601.149 604.512 600.049Q602.982 598.949 601.479 597.812Q599.977 596.674 598.503 595.501Q597.029 594.327 595.584 593.117C571.623 573.071 552.946 544.236 545.523 513.845C543.483 505.492 542.541 497.021 541.784 488.478C538.29 449.088 551.075 407.022 576.591 376.616C595.021 354.654 617.567 338.791 644.195 328.335C650.536 325.845 657.804 322.972 664.597 322.374C667.475 313.816 668.903 304.465 672.196 296.121C674.537 290.187 677.169 288.006 682.75 285.469C694.798 287.221 706.338 292.211 718.387 293.88C723.293 286.346 725.948 276.328 731.349 267.602C744.653 246.108 765.504 232.33 789.939 226.809C792.668 226.192 795.398 225.254 798.168 224.867C802.636 224.242 807.512 223.881 812.029 223.77C816.166 223.667 820.91 224.181 824.931 223.097C826.55 222.661 827.382 222.1 828.259 220.689C826.419 213.401 809.559 201.945 805.832 193.728C804.754 191.354 804.439 188.695 805.44 186.241C807.25 181.806 811.473 180.374 815.53 178.645C820.877 180.078 825.07 183.342 829.795 186.102C836.487 190.012 843.25 194.037 850.214 197.438C851.5 190.197 854.108 166.736 857.034 161.726C858.784 158.729 860.678 157.981 863.948 157.124Z"/>
	<path fill="#FEFDFC" d="M687.844 370.693C690.105 370.284 692.708 370.365 695.009 370.353C700.817 370.323 706.44 371.97 711.99 373.494C725.489 377.199 736.139 380.826 746.323 390.949C756.351 400.919 761.467 412.825 761.364 426.984C761.235 444.885 753.537 460.224 740.863 472.65C750.611 481 758.256 487.699 762.366 500.394C767.219 515.385 765.158 535.02 757.842 548.909C750.171 563.473 736.169 574.545 720.467 579.238C700.803 585.114 676.87 584.634 658.561 574.75C644.107 566.946 633.247 554.354 628.633 538.476C626.969 532.75 624.738 523.092 627.986 517.671C629.562 515.042 631.816 513.855 634.729 513.229C634.911 513.19 635.094 513.156 635.276 513.119C641.86 512.87 656.285 512.019 662.07 513.244C664.245 513.704 666.238 514.615 667.802 516.224C669.958 518.44 671.092 523.244 672.316 526.123C673.987 530.053 676.858 533.93 680.281 536.524C685.487 540.471 692.687 541.205 699.016 540.339C704.87 539.537 710.122 536.647 713.559 531.78C717.349 526.415 718.212 519.275 717.12 512.899C712.962 488.639 686.597 498.621 679.539 493.083C677.407 491.411 676.849 488.572 676.589 486.012C676.049 480.687 676.974 474.753 677.445 469.418C677.839 464.961 678.077 458.518 681.158 454.984C685.435 450.078 704.134 454.183 712.887 442.799C715.793 439.019 716.784 433.867 716.085 429.196C715.4 424.611 712.498 420.541 708.696 417.974C703.342 414.359 695.437 412.79 689.174 414.267C679.285 416.598 676.889 424.477 672.068 431.925C670.255 434.725 668.524 435.856 665.265 436.488C659.355 437.635 638.127 438.174 633.47 434.788C631.9 433.646 631.359 431.585 631.121 429.751C630.773 427.062 631.108 424.219 631.306 421.528C632.065 411.218 634.552 402.44 641.036 394.163C652.543 379.472 669.867 372.938 687.844 370.693Z"/>
	<path fill="#0A5C9D" d="M687.454 378.207C687.616 378.191 687.777 378.171 687.94 378.16C704.887 376.929 724.428 382.483 737.52 393.475C746.496 401.011 752.84 412.606 753.742 424.348C754.871 439.036 749.12 451.054 739.455 461.707C736.041 465.47 732.239 468.863 728.964 472.754L728.572 473.227C733.018 477.375 738.606 480.191 743.113 484.324C752.186 492.646 756.867 503.594 757.357 515.823C757.941 530.378 753.546 545.22 743.548 556.026C730.905 569.69 714.149 574.824 695.956 575.371C678.478 575.895 662.28 570.423 649.556 558.24C638.593 547.742 634.303 536.105 634.016 521.137C642.614 520.179 651.715 520.731 660.375 520.736C661.491 521.078 661.664 521.155 662.269 522.184C663.136 523.661 663.542 525.898 664.174 527.531C666.733 534.144 671.284 540.738 677.575 544.234C685.592 548.69 695.884 549.118 704.596 546.576C711.761 544.486 718.322 540.063 721.821 533.306C725.65 525.909 726.234 514.278 723.649 506.477C719.783 494.81 708.074 488.862 696.496 487.966C693.534 487.737 687.766 488.323 685.224 486.749C684.524 486.315 684.288 485.29 684.13 484.524C683.151 479.782 684.486 464.161 686.858 460.28C691.526 458.772 697.254 459.299 702.153 458.508C708.806 457.434 715.784 453.073 719.619 447.593C723.811 441.605 724.998 433.613 723.502 426.516C722.101 419.873 717.843 414.372 712.056 410.899C704.647 406.454 694.943 405.504 686.66 407.727C674.45 411.004 670.771 419.265 665.069 429.222C659.158 429.697 645.212 430.168 639.808 428.916C638.871 427.898 638.727 427.169 638.603 425.79C637.698 415.695 641.832 405.072 648.229 397.402C657.892 385.815 672.702 379.632 687.454 378.207Z"/>
	<path fill="#292929" d="M196.652 490.487C198.956 487.009 201.311 483.487 204.182 480.444C211.649 472.529 222.67 468.213 233.448 467.932C248.063 467.552 262.963 471.014 273.762 481.383C284.251 491.454 287.697 503.458 288.018 517.72C288.467 537.646 287.926 557.666 287.966 577.604C287.987 588.024 288.976 604.367 287.889 614.004C287.712 615.566 287.599 616.983 286.374 618.073C282.538 621.487 260.307 620.005 254.391 619.951L249.262 616.537C248.501 608.507 248.99 600.076 248.997 592.007L249.053 546.931C249.063 539.456 249.682 531.359 248.623 523.96C247.878 518.754 245.924 511.603 242.369 507.627C238.829 503.668 233.13 502.087 227.988 501.892C221.156 501.634 214.194 504.173 209.284 508.986Q208.768 509.487 208.291 510.024Q207.813 510.561 207.376 511.132Q206.938 511.702 206.543 512.303Q206.149 512.904 205.799 513.532Q205.449 514.16 205.145 514.812Q204.842 515.463 204.586 516.135Q204.331 516.807 204.125 517.496Q203.919 518.185 203.764 518.887C201.894 527.506 202.972 537.827 202.975 546.703L203.021 598.25C203.052 602.751 204.068 613.857 202.218 617.347C201.75 618.228 200.147 618.884 199.212 619.175C193.675 620.9 175.826 620.649 169.846 619.559C168.075 619.237 166.317 618.201 164.734 617.37C163.162 609.01 163.975 599.584 163.981 591.089L164.038 544.75C164.051 536.949 164.601 528.791 162.863 521.142C161.756 516.265 159.502 511.742 156.05 508.09C152.121 503.933 147.492 502.086 141.812 501.928C135.734 501.76 130.139 503.217 125.725 507.618C121.585 511.745 117.912 517.746 116.495 523.433C113.576 535.152 114.979 549.145 114.978 561.232L115.002 616.043C114.527 616.64 114.059 617.254 113.508 617.786C109.981 621.189 89.9903 620.215 84.6613 619.996C81.9758 619.886 78.56 619.683 76.6334 617.594C75.507 612.18 75.3625 477.182 76.2996 474.279C76.6139 473.306 77.4168 472.806 78.3116 472.389C83.2433 470.089 103.997 470.332 109.886 471.319C111.617 471.609 113.346 472.281 114.995 472.872C114.993 478.419 115.009 483.899 115.77 489.404C116.465 488.006 117.164 486.585 117.994 485.26C124.296 475.199 134.343 470.934 145.351 468.177C151.594 467.073 159.983 467.761 166.162 468.976C179.275 471.554 189.318 479.579 196.652 490.487Z"/>
	<path fill="#292929" d="M413.087 485.486C417.015 482.235 420.8 478.53 425.025 475.681C436.903 467.67 452.548 465.815 466.523 467.145C483.176 468.73 496.879 475.278 507.51 488.382C512.914 495.042 516.504 503.539 518.029 511.953C519.377 519.388 519.061 527.038 519.053 534.564C519.043 545.48 519.145 556.421 518.937 567.335C518.842 572.274 518.219 577.207 518.241 582.145C518.285 592.444 520.222 603.249 518.943 613.495C518.715 615.321 518.361 617.249 517.293 618.779C512.701 621.711 490.427 621.95 484.9 620.632C483.212 620.23 481.018 619.451 479.933 618.003C479.366 617.245 479.218 616.273 479.03 615.373L478.937 614.543C479.518 598.887 479.02 583.039 479.033 567.361C479.043 555.272 480.226 541.811 478.204 529.888C477.119 523.488 474.89 516.896 470.637 511.888C465.149 505.425 457.009 501.588 448.583 501.047C440.112 500.504 431.709 503.064 425.325 508.726C417.124 515.999 413.635 525.221 412.964 536.01C412.958 543.889 412.832 551.79 413.07 559.665C412.134 571.735 412.999 586.281 413.065 598.579C413.097 604.376 413.934 611.545 412.169 617.09C410.318 619.358 407.19 619.936 404.423 620.278C397.041 621.19 380.873 623.028 374.919 618.37C372.83 611.982 373.971 593.059 373.99 585.207C374.046 561.741 374.912 537.958 373.87 514.529C374.703 502.611 374.036 487.56 373.854 475.445C374.346 473.808 374.896 471.578 376.599 470.753C380.348 468.938 406.682 469.587 410.379 471.437C411.682 472.089 412.292 472.941 412.661 474.335C413.55 477.688 413.047 481.996 413.087 485.486Z"/>
	<path fill="#292929" d="M913.07 467.179C916.283 466.586 919.939 466.823 923.223 466.807C937.96 466.736 952.096 468.669 964.857 476.522C977.297 484.178 982.963 495.162 986.262 509.027C973.955 512.931 961.07 509.769 948.554 512.381C944.894 505.607 942.247 499.485 934.292 497.045C927.338 494.912 916.391 495.116 909.936 498.616C906.553 500.451 904.017 503.469 903.008 507.203C901.512 512.745 903.427 517.243 906.139 521.947C913.151 525.678 921.253 526.83 929.013 527.944C946.497 530.452 966.006 532.748 978.894 546.128C986.534 554.06 989.263 564.912 988.98 575.73C988.663 587.871 984.902 598.172 975.989 606.569C963.079 618.732 946.585 623.51 929.088 623.057C915.716 623.259 903.897 622.185 891.315 617.104C879.748 612.434 868.742 602.411 863.912 590.825C862.692 587.899 858.907 580.132 860.16 577.111L861.105 577.1L860.741 576.903C861.857 576.69 862.982 576.484 864.109 576.335C868.469 575.759 894.314 572.869 897.012 573.491C898.301 573.789 899.392 575.081 900.022 576.175C902.945 581.249 904.197 586.027 909.218 589.762C915.447 594.397 926.545 594.865 933.964 593.494C939.364 592.495 945.629 590.093 948.767 585.377C951.192 581.731 951.92 577.123 950.963 572.872C950.01 568.642 947.64 565.409 943.781 563.418C939.318 561.116 933.863 560.639 928.958 559.847C913.293 557.317 896.201 556.071 882.564 547.254C874.14 541.807 867.358 533.581 865.406 523.574C863.109 511.797 864.698 498.654 871.605 488.668C881.484 474.385 896.932 470.09 913.07 467.179Z"/>
	<path fill="#292929" d="M833.147 652.553C838.269 652.334 852.105 651.946 856.181 654.196C858.096 660.608 857.056 669.531 857.055 676.268L857.18 708.936C857.167 715.963 856.747 723.069 857.272 730.079L857.342 730.964L877.904 705.751C881.243 701.739 884.52 697.303 888.268 693.681C889.133 692.846 890.244 691.8 891.404 691.388C895.848 689.812 914.45 690.902 920.146 690.89C908.088 706.948 893.476 721.122 881.524 737.223C881.66 738.991 904.055 765.182 907.171 768.373C911.044 772.431 914.664 776.852 918.144 781.251C919.365 782.794 921.306 784.884 921.064 786.913C917.089 788.035 896.878 787.735 892.764 786.558C887.245 781.466 882.531 774.926 877.724 769.143C872.324 762.647 866.116 756.131 861.624 748.999C860.763 747.632 859.417 746.242 857.798 745.872C855.494 750.016 858.298 777.279 856.869 785.232C856.83 785.449 856.783 785.664 856.74 785.88C851.629 788.325 843.915 787.703 838.258 787.565C836.262 787.516 833.173 787.664 831.718 786.13C831.214 777.023 831.483 767.804 831.485 758.683L831.496 713.345L831.431 677.666C831.405 670.568 831.072 663.301 831.596 656.222C831.717 654.577 832.116 653.827 833.147 652.553Z"/>
	<path fill="#292929" d="M317.6 471.109C327.822 470.981 339.281 469.549 348.874 473.415C349.351 490.784 349.045 508.225 349.051 525.601L349.007 616.104C346.982 618.513 345.588 619.083 342.586 620.008C335.041 620.075 317.551 621.867 311.966 617.507C310.117 605.542 310.985 592.778 310.989 580.672L310.974 522.078L310.968 489.979C310.968 484.699 310.419 478.613 311.361 473.439C312.933 471.854 315.496 471.624 317.6 471.109Z"/>
	<path fill="#292929" d="M619.455 753.097C619.383 753.664 619.297 754.227 619.219 754.793C618.333 761.179 615.134 767.754 611.096 772.761C603.221 782.524 591.485 787.924 579.143 789.224C566.325 790.573 551.829 787.556 541.676 779.328C531.267 770.891 526.307 760.598 524.972 747.319C523.573 733.393 524.655 718.573 533.971 707.376C543.198 696.287 555.005 690.281 569.329 688.958C582.499 687.743 595.609 691.3 605.769 699.887C611.75 704.942 618.611 713.723 618.847 721.947C618.882 723.153 618.692 723.648 617.89 724.512C611.749 726.328 600.785 725.149 594.062 725.092C592.229 722.014 590.442 719.107 587.776 716.652C583.601 712.805 578.467 710.998 572.803 711.287C566.608 711.602 560.523 714.521 556.53 719.283C552.502 724.086 549.913 731.825 550.465 738.147L550.452 738.412C550.227 739.375 550.17 740.29 550.176 741.277C550.217 748.458 552.557 756.842 557.811 761.941C562.164 766.165 568.008 767.978 574 767.804C588.423 767.386 585.978 762.101 593.623 754.596C596.993 751.287 614.506 752.959 619.455 753.097Z"/>
	<path fill="#292929" d="M767.026 689.177C776.203 687.448 788.345 690.247 796.452 694.705C805.374 699.612 814.074 709.003 816.664 719.051C817.143 720.909 817.267 722.394 816.285 724.126C813.814 726.237 796.021 725.061 791.675 724.967C789.588 720.959 787.499 717.344 783.698 714.676C779.037 711.405 772.592 710.577 767.075 711.665C761.172 712.829 756.168 716.346 752.902 721.377C747.594 729.552 747.34 740.144 749.557 749.362C751.114 755.837 754.614 761.62 760.463 765.063C765.747 768.173 772.662 768.721 778.49 766.942C785.584 764.776 788.453 759.186 791.623 753.061L799.04 752.906C802.898 752.885 812.734 752.013 815.767 753.377C816.422 753.671 816.778 753.903 816.903 754.619C817.574 758.456 813.684 765.961 811.57 769.239C804.743 779.824 793.994 785.99 781.823 788.474C768.965 791.098 754.626 788.872 743.66 781.497C732.244 773.819 725.989 763.396 723.505 749.994C721.119 737.116 722.617 719.723 730.354 708.703C739.305 695.954 752.51 691.824 767.026 689.177Z"/>
	<path fill="#292929" d="M636.767 652.524C641.644 652.55 646.524 652.32 651.401 652.411C653.32 652.447 657.887 652.533 659.143 654.313C660.062 655.614 659.957 657.882 659.999 659.443C660.807 689.703 660.02 720.176 660.025 750.459C660.025 756.909 660.873 780.183 659.899 784.282C659.568 785.674 657.937 786.303 656.783 786.91C655.582 787.258 654.549 787.392 653.3 787.445C649.613 787.6 637.676 788.69 635.054 785.788C634.194 784.837 634.517 778.03 634.511 776.509L634.505 698.542C634.514 685.375 633.962 672.059 634.476 658.912C634.595 655.862 634.502 654.628 636.767 652.524Z"/>
	<path fill="#292929" d="M684.082 693.568C689.206 693.487 701.887 691.917 705.879 695.245C706.41 696.526 706.468 697.629 706.505 698.993C706.992 716.863 706.473 734.913 706.492 752.809C706.501 762.207 707.478 775.541 706.221 784.507C705.441 786.108 704.062 786.593 702.553 787.357C697.383 787.801 685.514 788.941 681.396 785.605C680.738 783.631 680.599 781.653 680.538 779.588C680.051 763.001 680.624 746.311 680.586 729.709C680.561 718.676 679.445 706.678 680.77 695.763C681.554 694.403 682.702 694.114 684.082 693.568Z"/>
	<path fill="#292929" d="M324.635 405.02Q325.199 404.902 325.768 404.811Q326.337 404.721 326.91 404.658Q327.483 404.596 328.059 404.561Q328.634 404.527 329.21 404.52Q329.786 404.514 330.362 404.536Q330.938 404.557 331.512 404.607Q332.086 404.657 332.658 404.735Q333.229 404.813 333.795 404.919Q334.362 405.025 334.922 405.158Q335.483 405.291 336.036 405.452Q336.59 405.613 337.135 405.8Q337.68 405.987 338.215 406.201Q338.75 406.415 339.274 406.655Q339.799 406.895 340.31 407.16Q340.822 407.425 341.32 407.715Q341.818 408.004 342.302 408.318Q342.785 408.632 343.253 408.969Q343.72 409.306 344.171 409.665Q344.621 410.025 345.054 410.406Q345.486 410.787 345.899 411.189Q346.312 411.59 346.706 412.012Q347.099 412.433 347.471 412.873Q347.843 413.314 348.193 413.771Q348.543 414.229 348.87 414.704Q349.197 415.178 349.501 415.668Q349.805 416.158 350.084 416.662Q350.364 417.166 350.618 417.683Q350.873 418.2 351.101 418.729Q351.33 419.258 351.533 419.797Q351.736 420.337 351.912 420.885Q352.088 421.434 352.237 421.991Q352.386 422.548 352.508 423.111Q352.63 423.674 352.724 424.243Q352.818 424.812 352.884 425.384Q352.95 425.957 352.988 426.532Q353.026 427.107 353.036 427.683Q353.046 428.26 353.028 428.836Q353.01 429.412 352.963 429.986Q352.917 430.561 352.842 431.132Q352.768 431.704 352.666 432.271Q352.563 432.838 352.433 433.4Q352.304 433.961 352.146 434.516Q351.989 435.07 351.805 435.616Q351.621 436.163 351.411 436.699Q351.2 437.236 350.963 437.761Q350.727 438.287 350.465 438.8Q350.203 439.314 349.916 439.813Q349.63 440.313 349.319 440.799Q349.008 441.284 348.674 441.754Q348.34 442.223 347.983 442.676Q347.626 443.129 347.248 443.564Q346.87 443.998 346.47 444.414Q346.071 444.83 345.652 445.225Q345.233 445.621 344.795 445.996Q344.357 446.371 343.902 446.724Q343.446 447.076 342.974 447.407Q342.501 447.737 342.013 448.044Q341.525 448.35 341.023 448.633Q340.521 448.915 340.005 449.173Q339.489 449.431 338.962 449.663Q338.434 449.895 337.896 450.101Q337.358 450.307 336.81 450.486Q336.262 450.666 335.706 450.818Q335.151 450.971 334.588 451.096Q333.857 451.259 333.116 451.375Q332.376 451.491 331.63 451.559Q330.884 451.628 330.135 451.649Q329.386 451.67 328.637 451.644Q327.888 451.617 327.142 451.543Q326.397 451.469 325.657 451.348Q324.918 451.227 324.187 451.059Q323.457 450.891 322.739 450.677Q322.021 450.463 321.318 450.204Q320.615 449.945 319.929 449.641Q319.244 449.338 318.58 448.992Q317.915 448.646 317.274 448.258Q316.633 447.87 316.017 447.443Q315.402 447.015 314.815 446.549Q314.228 446.083 313.672 445.581Q313.116 445.079 312.593 444.542Q312.07 444.005 311.582 443.437Q311.094 442.868 310.643 442.269Q310.192 441.671 309.78 441.045Q309.368 440.419 308.997 439.768Q308.626 439.117 308.297 438.444Q307.967 437.771 307.682 437.078Q307.396 436.385 307.155 435.676Q306.913 434.967 306.718 434.243Q306.522 433.52 306.373 432.786Q306.223 432.051 306.121 431.309Q306.019 430.567 305.964 429.819Q305.909 429.072 305.901 428.323Q305.894 427.573 305.934 426.825Q305.974 426.077 306.062 425.333Q306.149 424.588 306.284 423.851Q306.419 423.114 306.6 422.387Q306.7 421.987 306.814 421.59Q306.927 421.194 307.055 420.802Q307.182 420.409 307.323 420.022Q307.465 419.634 307.619 419.252Q307.774 418.869 307.942 418.493Q308.11 418.116 308.291 417.745Q308.472 417.375 308.666 417.011Q308.859 416.647 309.066 416.289Q309.272 415.932 309.491 415.583Q309.71 415.233 309.941 414.891Q310.172 414.55 310.415 414.216Q310.658 413.883 310.912 413.558Q311.166 413.233 311.432 412.918Q311.697 412.602 311.974 412.296Q312.25 411.99 312.537 411.693Q312.824 411.397 313.121 411.111Q313.418 410.825 313.725 410.549Q314.032 410.274 314.348 410.009Q314.665 409.744 314.99 409.491Q315.316 409.238 315.65 408.996Q315.984 408.754 316.326 408.524Q316.669 408.294 317.019 408.076Q317.369 407.858 317.727 407.653Q318.084 407.447 318.449 407.254Q318.813 407.061 319.185 406.881Q319.556 406.701 319.933 406.534Q320.31 406.368 320.693 406.214Q321.076 406.06 321.464 405.92Q321.852 405.78 322.244 405.654Q322.637 405.527 323.034 405.415Q323.43 405.302 323.831 405.203Q324.231 405.105 324.635 405.02Z"/>
	<path fill="#292929" d="M497.44 759.213Q497.853 759.197 498.266 759.205Q498.679 759.213 499.091 759.244Q499.503 759.275 499.913 759.33Q500.322 759.384 500.728 759.462Q501.134 759.539 501.535 759.64Q501.936 759.74 502.33 759.863Q502.725 759.986 503.111 760.132Q503.498 760.277 503.876 760.444Q504.254 760.611 504.622 760.799Q504.99 760.987 505.347 761.196Q505.703 761.404 506.047 761.633Q506.392 761.861 506.722 762.109Q507.053 762.357 507.369 762.623Q507.685 762.889 507.986 763.172Q508.287 763.456 508.571 763.756Q508.854 764.056 509.121 764.372Q509.447 764.758 509.745 765.166Q510.043 765.573 510.312 766Q510.582 766.428 510.821 766.873Q511.06 767.318 511.267 767.778Q511.475 768.238 511.65 768.712Q511.825 769.186 511.967 769.67Q512.109 770.155 512.217 770.648Q512.325 771.142 512.399 771.641Q512.472 772.141 512.511 772.645Q512.55 773.148 512.554 773.653Q512.557 774.158 512.526 774.662Q512.495 775.166 512.429 775.667Q512.363 776.168 512.262 776.663Q512.162 777.157 512.027 777.644Q511.893 778.131 511.725 778.607Q511.557 779.083 511.356 779.547Q511.155 780.01 510.923 780.459Q510.691 780.907 510.428 781.339Q510.165 781.77 509.873 782.182Q509.581 782.594 509.261 782.985Q508.942 783.376 508.595 783.744Q508.249 784.111 507.878 784.454Q507.508 784.797 507.114 785.114Q506.72 785.43 506.306 785.718Q505.891 786.007 505.457 786.266Q505.024 786.525 504.573 786.753Q504.122 786.981 503.657 787.177Q503.192 787.374 502.714 787.538Q502.236 787.701 501.749 787.832Q501.261 787.962 500.765 788.058Q500.269 788.154 499.768 788.216Q499.266 788.277 498.762 788.304Q498.403 788.323 498.044 788.324Q497.685 788.326 497.326 788.309Q496.968 788.293 496.61 788.259Q496.253 788.224 495.897 788.173Q495.542 788.121 495.189 788.052Q494.837 787.983 494.488 787.896Q494.14 787.81 493.796 787.706Q493.452 787.603 493.114 787.483Q492.775 787.362 492.443 787.225Q492.111 787.089 491.786 786.935Q491.462 786.782 491.145 786.613Q490.828 786.445 490.519 786.26Q490.211 786.076 489.913 785.877Q489.614 785.677 489.325 785.464Q489.037 785.25 488.759 785.022Q488.481 784.794 488.215 784.553Q487.949 784.312 487.695 784.058Q487.441 783.804 487.2 783.538Q486.959 783.271 486.731 782.994Q486.504 782.716 486.29 782.427Q486.076 782.139 485.877 781.84Q485.678 781.541 485.494 781.233Q485.31 780.924 485.141 780.607Q484.972 780.29 484.819 779.965Q484.666 779.641 484.529 779.309Q484.392 778.977 484.272 778.638Q484.152 778.3 484.049 777.956Q483.945 777.612 483.859 777.263Q483.773 776.915 483.703 776.562Q483.634 776.21 483.583 775.854Q483.531 775.499 483.497 775.141Q483.463 774.784 483.447 774.425Q483.431 774.066 483.432 773.707Q483.433 773.348 483.453 772.989Q483.472 772.631 483.508 772.273Q483.545 771.916 483.599 771.561Q483.654 771.206 483.726 770.854Q483.797 770.502 483.886 770.154Q483.975 769.806 484.081 769.463Q484.188 769.12 484.31 768.783Q484.433 768.445 484.573 768.114Q484.712 767.783 484.867 767.459Q485.023 767.136 485.194 766.82Q485.365 766.504 485.552 766.197Q485.739 765.891 485.94 765.593Q486.142 765.296 486.358 765.009Q486.574 764.722 486.803 764.446Q487.033 764.17 487.276 763.906Q487.519 763.641 487.775 763.389Q488.031 763.137 488.299 762.898Q488.567 762.659 488.847 762.434Q489.126 762.208 489.416 761.996Q489.707 761.785 490.007 761.588Q490.307 761.391 490.617 761.209Q490.927 761.027 491.245 760.861Q491.563 760.694 491.889 760.544Q492.215 760.393 492.548 760.259Q492.881 760.125 493.221 760.007Q493.56 759.889 493.905 759.788Q494.25 759.687 494.599 759.604Q494.948 759.52 495.301 759.453Q495.654 759.387 496.01 759.338Q496.366 759.289 496.723 759.258Q497.081 759.227 497.44 759.213Z"/>
	<path fill="#292929" d="M687.846 653.03C691.508 652.912 694.952 652.721 698.487 653.902C701.823 655.016 704.619 657.118 706.163 660.334C708.392 664.973 707.068 669.261 705.474 673.788C703.118 675.682 700.82 677.301 698.184 678.785C694.847 679.82 691.634 680.252 688.255 679.079Q687.64 678.872 687.05 678.603Q686.459 678.334 685.899 678.006Q685.339 677.679 684.815 677.296Q684.292 676.913 683.81 676.479Q683.328 676.044 682.892 675.563Q682.457 675.082 682.073 674.559Q681.689 674.036 681.36 673.477Q681.031 672.918 680.761 672.328C679.154 668.755 679.157 664.115 680.538 660.474C681.875 656.95 684.453 654.574 687.846 653.03Z"/>
</svg>
